<?xml version="1.0" encoding="UTF-8" standalone="no"?>
<!DOCTYPE svg PUBLIC "-//W3C//DTD SVG 1.1//EN"
 "http://www.w3.org/Graphics/SVG/1.1/DTD/svg11.dtd">
<!-- Generated by graphviz version 2.30.1 (20180420.1509)
 -->
<!-- Title: snakemake_dag Pages: 1 -->
<svg width="866pt" height="1772pt"
 viewBox="0.00 0.00 866.20 1772.00" xmlns="http://www.w3.org/2000/svg" xmlns:xlink="http://www.w3.org/1999/xlink">
<g id="graph0" class="graph" transform="scale(1 1) rotate(0) translate(4 1768)">
<title>snakemake_dag</title>
<polygon fill="white" stroke="white" points="-4,5 -4,-1768 863.195,-1768 863.195,5 -4,5"/>
<!-- 0 -->
<g id="node1" class="node"><title>0</title>
<path fill="none" stroke="#d88556" stroke-width="2" d="M622,-36C622,-36 592,-36 592,-36 586,-36 580,-30 580,-24 580,-24 580,-12 580,-12 580,-6 586,-0 592,-0 592,-0 622,-0 622,-0 628,-0 634,-6 634,-12 634,-12 634,-24 634,-24 634,-30 628,-36 622,-36"/>
<text text-anchor="middle" x="607" y="-15.5" font-family="sans" font-size="10.00">all</text>
</g>
<!-- 1 -->
<g id="node2" class="node"><title>1</title>
<path fill="none" stroke="#d85656" stroke-width="2" d="M651.25,-252C651.25,-252 540.75,-252 540.75,-252 534.75,-252 528.75,-246 528.75,-240 528.75,-240 528.75,-228 528.75,-228 528.75,-222 534.75,-216 540.75,-216 540.75,-216 651.25,-216 651.25,-216 657.25,-216 663.25,-222 663.25,-228 663.25,-228 663.25,-240 663.25,-240 663.25,-246 657.25,-252 651.25,-252"/>
<text text-anchor="middle" x="596" y="-231.5" font-family="sans" font-size="10.00">classify_phages_viruses</text>
</g>
<!-- 1&#45;&gt;0 -->
<g id="edge1" class="edge"><title>1&#45;&gt;0</title>
<path fill="none" stroke="grey" stroke-width="2" d="M595.187,-215.819C594.738,-205.448 594.226,-191.968 594,-180 593.698,-164.003 593.171,-159.979 594,-144 595.75,-110.254 600.141,-71.5892 603.336,-46.3082"/>
<polygon fill="grey" stroke="grey" points="606.813,-46.7119 604.622,-36.3463 599.871,-45.8162 606.813,-46.7119"/>
</g>
<!-- 2 -->
<g id="node3" class="node"><title>2</title>
<path fill="none" stroke="#88d856" stroke-width="2" d="M665,-180C665,-180 615,-180 615,-180 609,-180 603,-174 603,-168 603,-168 603,-156 603,-156 603,-150 609,-144 615,-144 615,-144 665,-144 665,-144 671,-144 677,-150 677,-156 677,-156 677,-168 677,-168 677,-174 671,-180 665,-180"/>
<text text-anchor="middle" x="640" y="-159.5" font-family="sans" font-size="10.00">query_taxid</text>
</g>
<!-- 1&#45;&gt;2 -->
<g id="edge13" class="edge"><title>1&#45;&gt;2</title>
<path fill="none" stroke="grey" stroke-width="2" d="M606.876,-215.697C611.992,-207.559 618.195,-197.689 623.845,-188.701"/>
<polygon fill="grey" stroke="grey" points="626.89,-190.433 629.249,-180.104 620.964,-186.708 626.89,-190.433"/>
</g>
<!-- 2&#45;&gt;0 -->
<g id="edge2" class="edge"><title>2&#45;&gt;0</title>
<path fill="none" stroke="grey" stroke-width="2" d="M636.019,-143.871C630.37,-119.564 619.972,-74.8187 613.278,-46.0132"/>
<polygon fill="grey" stroke="grey" points="616.668,-45.1374 610.995,-36.1893 609.849,-46.722 616.668,-45.1374"/>
</g>
<!-- 4 -->
<g id="node5" class="node"><title>4</title>
<path fill="none" stroke="#56d0d8" stroke-width="2" d="M810.25,-108C810.25,-108 745.75,-108 745.75,-108 739.75,-108 733.75,-102 733.75,-96 733.75,-96 733.75,-84 733.75,-84 733.75,-78 739.75,-72 745.75,-72 745.75,-72 810.25,-72 810.25,-72 816.25,-72 822.25,-78 822.25,-84 822.25,-84 822.25,-96 822.25,-96 822.25,-102 816.25,-108 810.25,-108"/>
<text text-anchor="middle" x="778" y="-87.5" font-family="sans" font-size="10.00">subset_contigs</text>
</g>
<!-- 2&#45;&gt;4 -->
<g id="edge17" class="edge"><title>2&#45;&gt;4</title>
<path fill="none" stroke="grey" stroke-width="2" d="M673.759,-143.876C692.22,-134.512 715.282,-122.814 735.017,-112.803"/>
<polygon fill="grey" stroke="grey" points="736.777,-115.835 744.112,-108.19 733.61,-109.592 736.777,-115.835"/>
</g>
<!-- 3 -->
<g id="node4" class="node"><title>3</title>
<path fill="none" stroke="#5682d8" stroke-width="2" d="M413.25,-324C413.25,-324 328.75,-324 328.75,-324 322.75,-324 316.75,-318 316.75,-312 316.75,-312 316.75,-300 316.75,-300 316.75,-294 322.75,-288 328.75,-288 328.75,-288 413.25,-288 413.25,-288 419.25,-288 425.25,-294 425.25,-300 425.25,-300 425.25,-312 425.25,-312 425.25,-318 419.25,-324 413.25,-324"/>
<text text-anchor="middle" x="371" y="-303.5" font-family="sans" font-size="10.00">merge_unassigned</text>
</g>
<!-- 3&#45;&gt;0 -->
<g id="edge3" class="edge"><title>3&#45;&gt;0</title>
<path fill="none" stroke="grey" stroke-width="2" d="M385.056,-287.966C424.969,-239.597 539.143,-101.234 586.269,-44.1227"/>
<polygon fill="grey" stroke="grey" points="589.054,-46.2472 592.719,-36.3065 583.655,-41.7919 589.054,-46.2472"/>
</g>
<!-- 7 -->
<g id="node8" class="node"><title>7</title>
<path fill="none" stroke="#70d856" stroke-width="2" d="M254,-252C254,-252 208,-252 208,-252 202,-252 196,-246 196,-240 196,-240 196,-228 196,-228 196,-222 202,-216 208,-216 208,-216 254,-216 254,-216 260,-216 266,-222 266,-228 266,-228 266,-240 266,-240 266,-246 260,-252 254,-252"/>
<text text-anchor="middle" x="231" y="-231.5" font-family="sans" font-size="10.00">blast_stats</text>
</g>
<!-- 3&#45;&gt;7 -->
<g id="edge22" class="edge"><title>3&#45;&gt;7</title>
<path fill="none" stroke="grey" stroke-width="2" d="M336.752,-287.876C317.939,-278.469 294.415,-266.708 274.334,-256.667"/>
<polygon fill="grey" stroke="grey" points="275.889,-253.531 265.38,-252.19 272.759,-259.792 275.889,-253.531"/>
</g>
<!-- 4&#45;&gt;0 -->
<g id="edge4" class="edge"><title>4&#45;&gt;0</title>
<path fill="none" stroke="grey" stroke-width="2" d="M736.169,-71.8761C707.813,-60.2685 670.698,-45.0752 643.532,-33.9547"/>
<polygon fill="grey" stroke="grey" points="644.589,-30.6055 634.008,-30.0561 641.937,-37.0837 644.589,-30.6055"/>
</g>
<!-- 5 -->
<g id="node6" class="node"><title>5</title>
<path fill="none" stroke="#a7d856" stroke-width="2" stroke-dasharray="5,2" d="M780,-324C780,-324 668,-324 668,-324 662,-324 656,-318 656,-312 656,-312 656,-300 656,-300 656,-294 662,-288 668,-288 668,-288 780,-288 780,-288 786,-288 792,-294 792,-300 792,-300 792,-312 792,-312 792,-318 786,-324 780,-324"/>
<text text-anchor="middle" x="724" y="-303.5" font-family="sans" font-size="10.00">prepare_taxonomy_data</text>
</g>
<!-- 5&#45;&gt;0 -->
<g id="edge5" class="edge"><title>5&#45;&gt;0</title>
<path fill="none" stroke="grey" stroke-width="2" d="M721.874,-287.972C717.716,-257.949 707.022,-194.043 686,-144 670.503,-107.11 644.593,-68.8058 626.694,-44.4831"/>
<polygon fill="grey" stroke="grey" points="629.284,-42.1016 620.496,-36.1832 623.675,-46.2899 629.284,-42.1016"/>
</g>
<!-- 5&#45;&gt;1 -->
<g id="edge12" class="edge"><title>5&#45;&gt;1</title>
<path fill="none" stroke="grey" stroke-width="2" d="M692.688,-287.876C675.797,-278.639 654.753,-267.131 636.615,-257.212"/>
<polygon fill="grey" stroke="grey" points="637.886,-253.917 627.433,-252.19 634.527,-260.059 637.886,-253.917"/>
</g>
<!-- 6 -->
<g id="node7" class="node"><title>6</title>
<path fill="none" stroke="#56c1d8" stroke-width="2" d="M377,-1548C377,-1548 275,-1548 275,-1548 269,-1548 263,-1542 263,-1536 263,-1536 263,-1524 263,-1524 263,-1518 269,-1512 275,-1512 275,-1512 377,-1512 377,-1512 383,-1512 389,-1518 389,-1524 389,-1524 389,-1536 389,-1536 389,-1542 383,-1548 377,-1548"/>
<text text-anchor="middle" x="326" y="-1527.5" font-family="sans" font-size="10.00">refgenome_bam_stats</text>
</g>
<!-- 6&#45;&gt;0 -->
<g id="edge6" class="edge"><title>6&#45;&gt;0</title>
<path fill="none" stroke="grey" stroke-width="2" d="M262.757,-1528.56C167.955,-1524.19 0,-1500.44 0,-1387 0,-1387 0,-1387 0,-161 0,-43.3768 437.605,-23.1236 569.695,-19.6894"/>
<polygon fill="grey" stroke="grey" points="569.827,-23.1874 579.739,-19.4458 569.657,-16.1894 569.827,-23.1874"/>
</g>
<!-- 7&#45;&gt;0 -->
<g id="edge7" class="edge"><title>7&#45;&gt;0</title>
<path fill="none" stroke="grey" stroke-width="2" d="M246.247,-215.941C276.41,-183.218 347.193,-111.394 421,-72 468.925,-46.4205 530.564,-32.0042 569.441,-24.8577"/>
<polygon fill="grey" stroke="grey" points="570.534,-28.2188 579.773,-23.0316 569.316,-21.3257 570.534,-28.2188"/>
</g>
<!-- 8 -->
<g id="node9" class="node"><title>8</title>
<path fill="none" stroke="#56d8b9" stroke-width="2" d="M815,-1332C815,-1332 777,-1332 777,-1332 771,-1332 765,-1326 765,-1320 765,-1320 765,-1308 765,-1308 765,-1302 771,-1296 777,-1296 777,-1296 815,-1296 815,-1296 821,-1296 827,-1302 827,-1308 827,-1308 827,-1320 827,-1320 827,-1326 821,-1332 815,-1332"/>
<text text-anchor="middle" x="796" y="-1311.5" font-family="sans" font-size="10.00">coverage</text>
</g>
<!-- 8&#45;&gt;0 -->
<g id="edge8" class="edge"><title>8&#45;&gt;0</title>
<path fill="none" stroke="grey" stroke-width="2" d="M809.149,-1295.69C827.348,-1269.95 858,-1219.42 858,-1171 858,-1171 858,-1171 858,-161 858,-119.664 861.124,-100.306 831,-72 804.269,-46.8822 700.691,-30.5343 644.223,-23.2948"/>
<polygon fill="grey" stroke="grey" points="644.614,-19.8164 634.257,-22.0489 643.746,-26.7624 644.614,-19.8164"/>
</g>
<!-- 14 -->
<g id="node15" class="node"><title>14</title>
<path fill="none" stroke="#5692d8" stroke-width="2" d="M800.25,-1260C800.25,-1260 733.75,-1260 733.75,-1260 727.75,-1260 721.75,-1254 721.75,-1248 721.75,-1248 721.75,-1236 721.75,-1236 721.75,-1230 727.75,-1224 733.75,-1224 733.75,-1224 800.25,-1224 800.25,-1224 806.25,-1224 812.25,-1230 812.25,-1236 812.25,-1236 812.25,-1248 812.25,-1248 812.25,-1254 806.25,-1260 800.25,-1260"/>
<text text-anchor="middle" x="767" y="-1239.5" font-family="sans" font-size="10.00">coverage_good</text>
</g>
<!-- 8&#45;&gt;14 -->
<g id="edge35" class="edge"><title>8&#45;&gt;14</title>
<path fill="none" stroke="grey" stroke-width="2" d="M788.831,-1295.7C785.565,-1287.81 781.626,-1278.3 777.998,-1269.55"/>
<polygon fill="grey" stroke="grey" points="781.147,-1268 774.086,-1260.1 774.68,-1270.68 781.147,-1268"/>
</g>
<!-- 9 -->
<g id="node10" class="node"><title>9</title>
<path fill="none" stroke="#d6d856" stroke-width="2" d="M459,-612C459,-612 351,-612 351,-612 345,-612 339,-606 339,-600 339,-600 339,-588 339,-588 339,-582 345,-576 351,-576 351,-576 459,-576 459,-576 465,-576 471,-582 471,-588 471,-588 471,-600 471,-600 471,-606 465,-612 459,-612"/>
<text text-anchor="middle" x="405" y="-597" font-family="sans" font-size="10.00">merge_blast_results</text>
<text text-anchor="middle" x="405" y="-586" font-family="sans" font-size="10.00">blastresult: blastn&#45;virus</text>
</g>
<!-- 9&#45;&gt;1 -->
<g id="edge9" class="edge"><title>9&#45;&gt;1</title>
<path fill="none" stroke="grey" stroke-width="2" d="M471.216,-578.05C523.246,-565.772 588.48,-548.992 598,-540 628.347,-511.339 628,-492.742 628,-451 628,-451 628,-451 628,-377 628,-336.037 615.171,-290.018 605.759,-261.768"/>
<polygon fill="grey" stroke="grey" points="609.033,-260.528 602.476,-252.207 602.413,-262.801 609.033,-260.528"/>
</g>
<!-- 10 -->
<g id="node11" class="node"><title>10</title>
<path fill="none" stroke="#d6d856" stroke-width="2" d="M470,-468C470,-468 354,-468 354,-468 348,-468 342,-462 342,-456 342,-456 342,-444 342,-444 342,-438 348,-432 354,-432 354,-432 470,-432 470,-432 476,-432 482,-438 482,-444 482,-444 482,-456 482,-456 482,-462 476,-468 470,-468"/>
<text text-anchor="middle" x="412" y="-453" font-family="sans" font-size="10.00">merge_blast_results</text>
<text text-anchor="middle" x="412" y="-442" font-family="sans" font-size="10.00">blastresult: megablast&#45;nt</text>
</g>
<!-- 10&#45;&gt;1 -->
<g id="edge10" class="edge"><title>10&#45;&gt;1</title>
<path fill="none" stroke="grey" stroke-width="2" d="M478.053,-431.891C511.59,-421.932 547.617,-408.84 559,-396 592.105,-358.658 597.301,-297.7 597.233,-262.48"/>
<polygon fill="grey" stroke="grey" points="600.732,-262.372 597.068,-252.43 593.733,-262.487 600.732,-262.372"/>
</g>
<!-- 11 -->
<g id="node12" class="node"><title>11</title>
<path fill="none" stroke="#d6d856" stroke-width="2" d="M550,-324C550,-324 456,-324 456,-324 450,-324 444,-318 444,-312 444,-312 444,-300 444,-300 444,-294 450,-288 456,-288 456,-288 550,-288 550,-288 556,-288 562,-294 562,-300 562,-300 562,-312 562,-312 562,-318 556,-324 550,-324"/>
<text text-anchor="middle" x="503" y="-309" font-family="sans" font-size="10.00">merge_blast_results</text>
<text text-anchor="middle" x="503" y="-298" font-family="sans" font-size="10.00">blastresult: blastn&#45;nt</text>
</g>
<!-- 11&#45;&gt;1 -->
<g id="edge11" class="edge"><title>11&#45;&gt;1</title>
<path fill="none" stroke="grey" stroke-width="2" d="M525.989,-287.697C537.814,-278.796 552.392,-267.823 565.179,-258.199"/>
<polygon fill="grey" stroke="grey" points="567.391,-260.915 573.276,-252.104 563.181,-255.322 567.391,-260.915"/>
</g>
<!-- 12 -->
<g id="node13" class="node"><title>12</title>
<path fill="none" stroke="#56d8a9" stroke-width="2" d="M538,-396C538,-396 468,-396 468,-396 462,-396 456,-390 456,-384 456,-384 456,-372 456,-372 456,-366 462,-360 468,-360 468,-360 538,-360 538,-360 544,-360 550,-366 550,-372 550,-372 550,-384 550,-384 550,-390 544,-396 538,-396"/>
<text text-anchor="middle" x="503" y="-375.5" font-family="sans" font-size="10.00">parse_blastn_nt</text>
</g>
<!-- 12&#45;&gt;3 -->
<g id="edge14" class="edge"><title>12&#45;&gt;3</title>
<path fill="none" stroke="grey" stroke-width="2" d="M470.709,-359.876C453.131,-350.554 431.191,-338.919 412.371,-328.939"/>
<polygon fill="grey" stroke="grey" points="413.889,-325.783 403.415,-324.19 410.61,-331.967 413.889,-325.783"/>
</g>
<!-- 12&#45;&gt;11 -->
<g id="edge28" class="edge"><title>12&#45;&gt;11</title>
<path fill="none" stroke="grey" stroke-width="2" d="M503,-359.697C503,-351.983 503,-342.712 503,-334.112"/>
<polygon fill="grey" stroke="grey" points="506.5,-334.104 503,-324.104 499.5,-334.104 506.5,-334.104"/>
</g>
<!-- 18 -->
<g id="node19" class="node"><title>18</title>
<path fill="none" stroke="#d8a456" stroke-width="2" d="M286,-324C286,-324 176,-324 176,-324 170,-324 164,-318 164,-312 164,-312 164,-300 164,-300 164,-294 170,-288 176,-288 176,-288 286,-288 286,-288 292,-288 298,-294 298,-300 298,-300 298,-312 298,-312 298,-318 292,-324 286,-324"/>
<text text-anchor="middle" x="231" y="-309" font-family="sans" font-size="10.00">merge_blast_unmapped</text>
<text text-anchor="middle" x="231" y="-298" font-family="sans" font-size="10.00">blastresult: blastn&#45;nt</text>
</g>
<!-- 12&#45;&gt;18 -->
<g id="edge41" class="edge"><title>12&#45;&gt;18</title>
<path fill="none" stroke="grey" stroke-width="2" d="M455.932,-364.887C414.892,-354.325 354.614,-338.812 306.785,-326.504"/>
<polygon fill="grey" stroke="grey" points="307.644,-323.111 297.087,-324.008 305.899,-329.89 307.644,-323.111"/>
</g>
<!-- 13 -->
<g id="node14" class="node"><title>13</title>
<path fill="none" stroke="#56d8a9" stroke-width="2" d="M349,-396C349,-396 279,-396 279,-396 273,-396 267,-390 267,-384 267,-384 267,-372 267,-372 267,-366 273,-360 279,-360 279,-360 349,-360 349,-360 355,-360 361,-366 361,-372 361,-372 361,-384 361,-384 361,-390 355,-396 349,-396"/>
<text text-anchor="middle" x="314" y="-375.5" font-family="sans" font-size="10.00">parse_blastn_nt</text>
</g>
<!-- 13&#45;&gt;3 -->
<g id="edge15" class="edge"><title>13&#45;&gt;3</title>
<path fill="none" stroke="grey" stroke-width="2" d="M328.09,-359.697C334.923,-351.305 343.257,-341.07 350.756,-331.861"/>
<polygon fill="grey" stroke="grey" points="353.472,-334.069 357.072,-324.104 348.044,-329.649 353.472,-334.069"/>
</g>
<!-- 13&#45;&gt;11 -->
<g id="edge29" class="edge"><title>13&#45;&gt;11</title>
<path fill="none" stroke="grey" stroke-width="2" d="M360.235,-359.876C386.531,-350.137 419.644,-337.872 447.358,-327.608"/>
<polygon fill="grey" stroke="grey" points="448.754,-330.824 456.916,-324.068 446.322,-324.259 448.754,-330.824"/>
</g>
<!-- 13&#45;&gt;18 -->
<g id="edge42" class="edge"><title>13&#45;&gt;18</title>
<path fill="none" stroke="grey" stroke-width="2" d="M293.483,-359.697C283.131,-350.965 270.414,-340.24 259.161,-330.75"/>
<polygon fill="grey" stroke="grey" points="261.182,-327.876 251.281,-324.104 256.669,-333.227 261.182,-327.876"/>
</g>
<!-- 14&#45;&gt;4 -->
<g id="edge16" class="edge"><title>14&#45;&gt;4</title>
<path fill="none" stroke="grey" stroke-width="2" d="M777.982,-1223.84C793.506,-1197.89 820,-1146.63 820,-1099 820,-1099 820,-1099 820,-233 820,-191.145 803.014,-145.096 790.646,-117.114"/>
<polygon fill="grey" stroke="grey" points="793.828,-115.658 786.499,-108.007 787.458,-118.558 793.828,-115.658"/>
</g>
<!-- 39 -->
<g id="node40" class="node"><title>39</title>
<path fill="none" stroke="#d87556" stroke-width="2" d="M647,-1188C647,-1188 617,-1188 617,-1188 611,-1188 605,-1182 605,-1176 605,-1176 605,-1164 605,-1164 605,-1158 611,-1152 617,-1152 617,-1152 647,-1152 647,-1152 653,-1152 659,-1158 659,-1164 659,-1164 659,-1176 659,-1176 659,-1182 653,-1188 647,-1188"/>
<text text-anchor="middle" x="632" y="-1167.5" font-family="sans" font-size="10.00">cd_hit</text>
</g>
<!-- 14&#45;&gt;39 -->
<g id="edge68" class="edge"><title>14&#45;&gt;39</title>
<path fill="none" stroke="grey" stroke-width="2" d="M733.975,-1223.88C714.074,-1213.56 688.707,-1200.4 668.252,-1189.8"/>
<polygon fill="grey" stroke="grey" points="669.725,-1186.62 659.237,-1185.12 666.503,-1192.83 669.725,-1186.62"/>
</g>
<!-- 15 -->
<g id="node16" class="node"><title>15</title>
<path fill="none" stroke="#78d856" stroke-width="2" d="M649,-1692C649,-1692 547,-1692 547,-1692 541,-1692 535,-1686 535,-1680 535,-1680 535,-1668 535,-1668 535,-1662 541,-1656 547,-1656 547,-1656 649,-1656 649,-1656 655,-1656 661,-1662 661,-1668 661,-1668 661,-1680 661,-1680 661,-1686 655,-1692 649,-1692"/>
<text text-anchor="middle" x="598" y="-1671.5" font-family="sans" font-size="10.00">bwa_mem_refgenome</text>
</g>
<!-- 15&#45;&gt;6 -->
<g id="edge18" class="edge"><title>15&#45;&gt;6</title>
<path fill="none" stroke="grey" stroke-width="2" d="M565.19,-1655.87C515.77,-1630.07 422.247,-1581.25 367.941,-1552.9"/>
<polygon fill="grey" stroke="grey" points="369.41,-1549.71 358.926,-1548.19 366.171,-1555.92 369.41,-1549.71"/>
</g>
<!-- 28 -->
<g id="node29" class="node"><title>28</title>
<path fill="none" stroke="#5663d8" stroke-width="2" d="M771.25,-1620C771.25,-1620 668.75,-1620 668.75,-1620 662.75,-1620 656.75,-1614 656.75,-1608 656.75,-1608 656.75,-1596 656.75,-1596 656.75,-1590 662.75,-1584 668.75,-1584 668.75,-1584 771.25,-1584 771.25,-1584 777.25,-1584 783.25,-1590 783.25,-1596 783.25,-1596 783.25,-1608 783.25,-1608 783.25,-1614 777.25,-1620 771.25,-1620"/>
<text text-anchor="middle" x="720" y="-1599.5" font-family="sans" font-size="10.00">unmapped_refgenome</text>
</g>
<!-- 15&#45;&gt;28 -->
<g id="edge56" class="edge"><title>15&#45;&gt;28</title>
<path fill="none" stroke="grey" stroke-width="2" d="M627.845,-1655.88C643.944,-1646.64 664.001,-1635.13 681.288,-1625.21"/>
<polygon fill="grey" stroke="grey" points="683.109,-1628.2 690.041,-1620.19 679.625,-1622.13 683.109,-1628.2"/>
</g>
<!-- 16 -->
<g id="node17" class="node"><title>16</title>
<path fill="none" stroke="#d8a456" stroke-width="2" d="M271,-612C271,-612 161,-612 161,-612 155,-612 149,-606 149,-600 149,-600 149,-588 149,-588 149,-582 155,-576 161,-576 161,-576 271,-576 271,-576 277,-576 283,-582 283,-588 283,-588 283,-600 283,-600 283,-606 277,-612 271,-612"/>
<text text-anchor="middle" x="216" y="-597" font-family="sans" font-size="10.00">merge_blast_unmapped</text>
<text text-anchor="middle" x="216" y="-586" font-family="sans" font-size="10.00">blastresult: blastn&#45;virus</text>
</g>
<!-- 16&#45;&gt;7 -->
<g id="edge19" class="edge"><title>16&#45;&gt;7</title>
<path fill="none" stroke="grey" stroke-width="2" d="M162.594,-575.907C110.163,-555.385 38,-515.436 38,-451 38,-451 38,-451 38,-377 38,-304.008 128.669,-264.365 185.716,-246.647"/>
<polygon fill="grey" stroke="grey" points="187.023,-249.909 195.601,-243.69 185.017,-243.202 187.023,-249.909"/>
</g>
<!-- 17 -->
<g id="node18" class="node"><title>17</title>
<path fill="none" stroke="#d8a456" stroke-width="2" d="M274,-468C274,-468 158,-468 158,-468 152,-468 146,-462 146,-456 146,-456 146,-444 146,-444 146,-438 152,-432 158,-432 158,-432 274,-432 274,-432 280,-432 286,-438 286,-444 286,-444 286,-456 286,-456 286,-462 280,-468 274,-468"/>
<text text-anchor="middle" x="216" y="-453" font-family="sans" font-size="10.00">merge_blast_unmapped</text>
<text text-anchor="middle" x="216" y="-442" font-family="sans" font-size="10.00">blastresult: megablast&#45;nt</text>
</g>
<!-- 17&#45;&gt;7 -->
<g id="edge20" class="edge"><title>17&#45;&gt;7</title>
<path fill="none" stroke="grey" stroke-width="2" d="M200.282,-431.98C174.569,-401.971 128.867,-338.085 155,-288 162.074,-274.443 174.374,-263.646 187.043,-255.429"/>
<polygon fill="grey" stroke="grey" points="189.051,-258.306 195.814,-250.15 185.441,-252.308 189.051,-258.306"/>
</g>
<!-- 18&#45;&gt;7 -->
<g id="edge21" class="edge"><title>18&#45;&gt;7</title>
<path fill="none" stroke="grey" stroke-width="2" d="M231,-287.697C231,-279.983 231,-270.712 231,-262.112"/>
<polygon fill="grey" stroke="grey" points="234.5,-262.104 231,-252.104 227.5,-262.104 234.5,-262.104"/>
</g>
<!-- 19 -->
<g id="node20" class="node"><title>19</title>
<path fill="none" stroke="#56d85b" stroke-width="2" d="M811,-1404C811,-1404 781,-1404 781,-1404 775,-1404 769,-1398 769,-1392 769,-1392 769,-1380 769,-1380 769,-1374 775,-1368 781,-1368 781,-1368 811,-1368 811,-1368 817,-1368 823,-1374 823,-1380 823,-1380 823,-1392 823,-1392 823,-1398 817,-1404 811,-1404"/>
<text text-anchor="middle" x="796" y="-1383.5" font-family="sans" font-size="10.00">bbwrap</text>
</g>
<!-- 19&#45;&gt;8 -->
<g id="edge23" class="edge"><title>19&#45;&gt;8</title>
<path fill="none" stroke="grey" stroke-width="2" d="M796,-1367.7C796,-1359.98 796,-1350.71 796,-1342.11"/>
<polygon fill="grey" stroke="grey" points="799.5,-1342.1 796,-1332.1 792.5,-1342.1 799.5,-1342.1"/>
</g>
<!-- 20 -->
<g id="node21" class="node"><title>20</title>
<path fill="none" stroke="#d8ac56" stroke-width="2" d="M518,-684C518,-684 434,-684 434,-684 428,-684 422,-678 422,-672 422,-672 422,-660 422,-660 422,-654 428,-648 434,-648 434,-648 518,-648 518,-648 524,-648 530,-654 530,-660 530,-660 530,-672 530,-672 530,-678 524,-684 518,-684"/>
<text text-anchor="middle" x="476" y="-663.5" font-family="sans" font-size="10.00">parse_blastn_virus</text>
</g>
<!-- 20&#45;&gt;9 -->
<g id="edge24" class="edge"><title>20&#45;&gt;9</title>
<path fill="none" stroke="grey" stroke-width="2" d="M458.449,-647.697C449.766,-639.135 439.137,-628.656 429.652,-619.304"/>
<polygon fill="grey" stroke="grey" points="431.927,-616.633 422.349,-612.104 427.012,-621.617 431.927,-616.633"/>
</g>
<!-- 20&#45;&gt;16 -->
<g id="edge37" class="edge"><title>20&#45;&gt;16</title>
<path fill="none" stroke="grey" stroke-width="2" d="M421.812,-650.411C383.29,-640.04 331.117,-625.993 288.941,-614.638"/>
<polygon fill="grey" stroke="grey" points="289.844,-611.256 279.278,-612.036 288.024,-618.016 289.844,-611.256"/>
</g>
<!-- 22 -->
<g id="node23" class="node"><title>22</title>
<path fill="none" stroke="#56d86b" stroke-width="2" d="M577,-540C577,-540 485,-540 485,-540 479,-540 473,-534 473,-528 473,-528 473,-516 473,-516 473,-510 479,-504 485,-504 485,-504 577,-504 577,-504 583,-504 589,-510 589,-516 589,-516 589,-528 589,-528 589,-534 583,-540 577,-540"/>
<text text-anchor="middle" x="531" y="-519.5" font-family="sans" font-size="10.00">parse_megablast_nt</text>
</g>
<!-- 20&#45;&gt;22 -->
<g id="edge49" class="edge"><title>20&#45;&gt;22</title>
<path fill="none" stroke="grey" stroke-width="2" d="M530.217,-650.722C549.704,-642.689 569.656,-630.434 581,-612 589.386,-598.374 586.907,-590.87 581,-576 576.709,-565.199 569.058,-555.324 561.012,-547.102"/>
<polygon fill="grey" stroke="grey" points="563.25,-544.401 553.596,-540.037 558.422,-549.469 563.25,-544.401"/>
</g>
<!-- 32 -->
<g id="node33" class="node"><title>32</title>
<path fill="none" stroke="#56d89a" stroke-width="2" d="M560.25,-612C560.25,-612 501.75,-612 501.75,-612 495.75,-612 489.75,-606 489.75,-600 489.75,-600 489.75,-588 489.75,-588 489.75,-582 495.75,-576 501.75,-576 501.75,-576 560.25,-576 560.25,-576 566.25,-576 572.25,-582 572.25,-588 572.25,-588 572.25,-600 572.25,-600 572.25,-606 566.25,-612 560.25,-612"/>
<text text-anchor="middle" x="531" y="-591.5" font-family="sans" font-size="10.00">megablast_nt</text>
</g>
<!-- 20&#45;&gt;32 -->
<g id="edge60" class="edge"><title>20&#45;&gt;32</title>
<path fill="none" stroke="grey" stroke-width="2" d="M489.596,-647.697C496.123,-639.389 504.068,-629.277 511.247,-620.141"/>
<polygon fill="grey" stroke="grey" points="514.135,-622.13 517.561,-612.104 508.631,-617.805 514.135,-622.13"/>
</g>
<!-- 21 -->
<g id="node22" class="node"><title>21</title>
<path fill="none" stroke="#d8ac56" stroke-width="2" d="M353,-684C353,-684 269,-684 269,-684 263,-684 257,-678 257,-672 257,-672 257,-660 257,-660 257,-654 263,-648 269,-648 269,-648 353,-648 353,-648 359,-648 365,-654 365,-660 365,-660 365,-672 365,-672 365,-678 359,-684 353,-684"/>
<text text-anchor="middle" x="311" y="-663.5" font-family="sans" font-size="10.00">parse_blastn_virus</text>
</g>
<!-- 21&#45;&gt;9 -->
<g id="edge25" class="edge"><title>21&#45;&gt;9</title>
<path fill="none" stroke="grey" stroke-width="2" d="M334.236,-647.697C346.188,-638.796 360.923,-627.823 373.847,-618.199"/>
<polygon fill="grey" stroke="grey" points="376.101,-620.884 382.031,-612.104 371.92,-615.27 376.101,-620.884"/>
</g>
<!-- 21&#45;&gt;16 -->
<g id="edge38" class="edge"><title>21&#45;&gt;16</title>
<path fill="none" stroke="grey" stroke-width="2" d="M287.517,-647.697C275.437,-638.796 260.546,-627.823 247.484,-618.199"/>
<polygon fill="grey" stroke="grey" points="249.34,-615.219 239.213,-612.104 245.187,-620.854 249.34,-615.219"/>
</g>
<!-- 23 -->
<g id="node24" class="node"><title>23</title>
<path fill="none" stroke="#56d86b" stroke-width="2" d="M310,-540C310,-540 218,-540 218,-540 212,-540 206,-534 206,-528 206,-528 206,-516 206,-516 206,-510 212,-504 218,-504 218,-504 310,-504 310,-504 316,-504 322,-510 322,-516 322,-516 322,-528 322,-528 322,-534 316,-540 310,-540"/>
<text text-anchor="middle" x="264" y="-519.5" font-family="sans" font-size="10.00">parse_megablast_nt</text>
</g>
<!-- 21&#45;&gt;23 -->
<g id="edge51" class="edge"><title>21&#45;&gt;23</title>
<path fill="none" stroke="grey" stroke-width="2" d="M308.778,-647.881C306.087,-629.67 300.787,-600.208 292,-576 288.698,-566.903 284.1,-557.421 279.583,-549.034"/>
<polygon fill="grey" stroke="grey" points="282.528,-547.128 274.591,-540.109 276.418,-550.545 282.528,-547.128"/>
</g>
<!-- 33 -->
<g id="node34" class="node"><title>33</title>
<path fill="none" stroke="#56d89a" stroke-width="2" d="M118.25,-612C118.25,-612 59.75,-612 59.75,-612 53.75,-612 47.75,-606 47.75,-600 47.75,-600 47.75,-588 47.75,-588 47.75,-582 53.75,-576 59.75,-576 59.75,-576 118.25,-576 118.25,-576 124.25,-576 130.25,-582 130.25,-588 130.25,-588 130.25,-600 130.25,-600 130.25,-606 124.25,-612 118.25,-612"/>
<text text-anchor="middle" x="89" y="-591.5" font-family="sans" font-size="10.00">megablast_nt</text>
</g>
<!-- 21&#45;&gt;33 -->
<g id="edge61" class="edge"><title>21&#45;&gt;33</title>
<path fill="none" stroke="grey" stroke-width="2" d="M256.997,-648.583C223.3,-638.259 179.057,-624.56 140,-612 139.903,-611.969 139.806,-611.937 139.708,-611.906"/>
<polygon fill="grey" stroke="grey" points="141.04,-608.659 130.448,-608.898 138.877,-615.316 141.04,-608.659"/>
</g>
<!-- 22&#45;&gt;10 -->
<g id="edge26" class="edge"><title>22&#45;&gt;10</title>
<path fill="none" stroke="grey" stroke-width="2" d="M501.889,-503.876C486.33,-494.724 466.981,-483.342 450.224,-473.485"/>
<polygon fill="grey" stroke="grey" points="451.617,-470.243 441.223,-468.19 448.067,-476.277 451.617,-470.243"/>
</g>
<!-- 22&#45;&gt;12 -->
<g id="edge30" class="edge"><title>22&#45;&gt;12</title>
<path fill="none" stroke="grey" stroke-width="2" d="M548.733,-503.599C557.239,-493.998 566.532,-481.336 571,-468 576.082,-452.829 578.022,-446.377 571,-432 565.194,-420.114 555.293,-410.119 544.816,-402.125"/>
<polygon fill="grey" stroke="grey" points="546.544,-399.059 536.358,-396.145 542.503,-404.775 546.544,-399.059"/>
</g>
<!-- 22&#45;&gt;17 -->
<g id="edge39" class="edge"><title>22&#45;&gt;17</title>
<path fill="none" stroke="grey" stroke-width="2" d="M472.857,-508.079C423.237,-497.053 351.379,-481.084 296.278,-468.84"/>
<polygon fill="grey" stroke="grey" points="296.715,-465.351 286.193,-466.599 295.196,-472.185 296.715,-465.351"/>
</g>
<!-- 24 -->
<g id="node25" class="node"><title>24</title>
<path fill="none" stroke="#b6d856" stroke-width="2" d="M550,-468C550,-468 512,-468 512,-468 506,-468 500,-462 500,-456 500,-456 500,-444 500,-444 500,-438 506,-432 512,-432 512,-432 550,-432 550,-432 556,-432 562,-438 562,-444 562,-444 562,-456 562,-456 562,-462 556,-468 550,-468"/>
<text text-anchor="middle" x="531" y="-447.5" font-family="sans" font-size="10.00">blastn_nt</text>
</g>
<!-- 22&#45;&gt;24 -->
<g id="edge53" class="edge"><title>22&#45;&gt;24</title>
<path fill="none" stroke="grey" stroke-width="2" d="M531,-503.697C531,-495.983 531,-486.712 531,-478.112"/>
<polygon fill="grey" stroke="grey" points="534.5,-478.104 531,-468.104 527.5,-478.104 534.5,-478.104"/>
</g>
<!-- 23&#45;&gt;10 -->
<g id="edge27" class="edge"><title>23&#45;&gt;10</title>
<path fill="none" stroke="grey" stroke-width="2" d="M300.205,-503.876C320.258,-494.392 345.372,-482.513 366.714,-472.419"/>
<polygon fill="grey" stroke="grey" points="368.369,-475.508 375.913,-468.068 365.376,-469.18 368.369,-475.508"/>
</g>
<!-- 23&#45;&gt;13 -->
<g id="edge32" class="edge"><title>23&#45;&gt;13</title>
<path fill="none" stroke="grey" stroke-width="2" d="M276.108,-503.567C282.56,-493.558 290.146,-480.523 295,-468 302.744,-448.021 307.616,-424.232 310.485,-406.277"/>
<polygon fill="grey" stroke="grey" points="313.975,-406.602 311.984,-396.196 307.051,-405.572 313.975,-406.602"/>
</g>
<!-- 23&#45;&gt;17 -->
<g id="edge40" class="edge"><title>23&#45;&gt;17</title>
<path fill="none" stroke="grey" stroke-width="2" d="M252.135,-503.697C246.497,-495.474 239.646,-485.483 233.431,-476.421"/>
<polygon fill="grey" stroke="grey" points="236.271,-474.372 227.729,-468.104 230.497,-478.331 236.271,-474.372"/>
</g>
<!-- 25 -->
<g id="node26" class="node"><title>25</title>
<path fill="none" stroke="#b6d856" stroke-width="2" d="M116,-468C116,-468 78,-468 78,-468 72,-468 66,-462 66,-456 66,-456 66,-444 66,-444 66,-438 72,-432 78,-432 78,-432 116,-432 116,-432 122,-432 128,-438 128,-444 128,-444 128,-456 128,-456 128,-462 122,-468 116,-468"/>
<text text-anchor="middle" x="97" y="-447.5" font-family="sans" font-size="10.00">blastn_nt</text>
</g>
<!-- 23&#45;&gt;25 -->
<g id="edge54" class="edge"><title>23&#45;&gt;25</title>
<path fill="none" stroke="grey" stroke-width="2" d="M222.791,-503.882C200.063,-494.423 171.121,-482.349 137.581,-468.234"/>
<polygon fill="grey" stroke="grey" points="138.575,-464.854 128,-464.199 135.858,-471.306 138.575,-464.854"/>
</g>
<!-- 24&#45;&gt;12 -->
<g id="edge31" class="edge"><title>24&#45;&gt;12</title>
<path fill="none" stroke="grey" stroke-width="2" d="M524.079,-431.697C520.925,-423.813 517.122,-414.304 513.619,-405.546"/>
<polygon fill="grey" stroke="grey" points="516.805,-404.089 509.842,-396.104 510.306,-406.689 516.805,-404.089"/>
</g>
<!-- 25&#45;&gt;13 -->
<g id="edge33" class="edge"><title>25&#45;&gt;13</title>
<path fill="none" stroke="grey" stroke-width="2" d="M128.312,-435.304C131.233,-434.144 134.161,-433.025 137,-432 176.544,-417.726 221.991,-404.176 256.931,-394.35"/>
<polygon fill="grey" stroke="grey" points="258.265,-397.612 266.956,-391.552 256.383,-390.869 258.265,-397.612"/>
</g>
<!-- 26 -->
<g id="node27" class="node"><title>26</title>
<path fill="none" stroke="#56a2d8" stroke-width="2" d="M761.25,-1476C761.25,-1476 678.75,-1476 678.75,-1476 672.75,-1476 666.75,-1470 666.75,-1464 666.75,-1464 666.75,-1452 666.75,-1452 666.75,-1446 672.75,-1440 678.75,-1440 678.75,-1440 761.25,-1440 761.25,-1440 767.25,-1440 773.25,-1446 773.25,-1452 773.25,-1452 773.25,-1464 773.25,-1464 773.25,-1470 767.25,-1476 761.25,-1476"/>
<text text-anchor="middle" x="720" y="-1455.5" font-family="sans" font-size="10.00">assemble_cleanup</text>
</g>
<!-- 26&#45;&gt;14 -->
<g id="edge34" class="edge"><title>26&#45;&gt;14</title>
<path fill="none" stroke="grey" stroke-width="2" d="M723.767,-1439.85C731.914,-1402.75 751.229,-1314.81 761.048,-1270.1"/>
<polygon fill="grey" stroke="grey" points="764.489,-1270.75 763.215,-1260.23 757.652,-1269.25 764.489,-1270.75"/>
</g>
<!-- 26&#45;&gt;19 -->
<g id="edge43" class="edge"><title>26&#45;&gt;19</title>
<path fill="none" stroke="grey" stroke-width="2" d="M738.787,-1439.7C748.174,-1431.05 759.684,-1420.45 769.913,-1411.03"/>
<polygon fill="grey" stroke="grey" points="772.445,-1413.45 777.43,-1404.1 767.703,-1408.3 772.445,-1413.45"/>
</g>
<!-- 27 -->
<g id="node28" class="node"><title>27</title>
<path fill="none" stroke="#d8bc56" stroke-width="2" stroke-dasharray="5,2" d="M636,-1764C636,-1764 560,-1764 560,-1764 554,-1764 548,-1758 548,-1752 548,-1752 548,-1740 548,-1740 548,-1734 554,-1728 560,-1728 560,-1728 636,-1728 636,-1728 642,-1728 648,-1734 648,-1740 648,-1740 648,-1752 648,-1752 648,-1758 642,-1764 636,-1764"/>
<text text-anchor="middle" x="598" y="-1749" font-family="sans" font-size="10.00">preprocess</text>
<text text-anchor="middle" x="598" y="-1738" font-family="sans" font-size="10.00">run: SRR5580016</text>
</g>
<!-- 27&#45;&gt;15 -->
<g id="edge36" class="edge"><title>27&#45;&gt;15</title>
<path fill="none" stroke="grey" stroke-width="2" d="M598,-1727.7C598,-1719.98 598,-1710.71 598,-1702.11"/>
<polygon fill="grey" stroke="grey" points="601.5,-1702.1 598,-1692.1 594.5,-1702.1 601.5,-1702.1"/>
</g>
<!-- 28&#45;&gt;19 -->
<g id="edge44" class="edge"><title>28&#45;&gt;19</title>
<path fill="none" stroke="grey" stroke-width="2" d="M735.834,-1583.98C744.311,-1574.1 754.347,-1561.06 761,-1548 783.045,-1504.72 791.244,-1448.02 794.266,-1414.75"/>
<polygon fill="grey" stroke="grey" points="797.784,-1414.66 795.105,-1404.41 790.807,-1414.1 797.784,-1414.66"/>
</g>
<!-- 34 -->
<g id="node35" class="node"><title>34</title>
<path fill="none" stroke="#61d856" stroke-width="2" d="M740,-1548C740,-1548 700,-1548 700,-1548 694,-1548 688,-1542 688,-1536 688,-1536 688,-1524 688,-1524 688,-1518 694,-1512 700,-1512 700,-1512 740,-1512 740,-1512 746,-1512 752,-1518 752,-1524 752,-1524 752,-1536 752,-1536 752,-1542 746,-1548 740,-1548"/>
<text text-anchor="middle" x="720" y="-1527.5" font-family="sans" font-size="10.00">assemble</text>
</g>
<!-- 28&#45;&gt;34 -->
<g id="edge62" class="edge"><title>28&#45;&gt;34</title>
<path fill="none" stroke="grey" stroke-width="2" d="M720,-1583.7C720,-1575.98 720,-1566.71 720,-1558.11"/>
<polygon fill="grey" stroke="grey" points="723.5,-1558.1 720,-1548.1 716.5,-1558.1 723.5,-1558.1"/>
</g>
<!-- 29 -->
<g id="node30" class="node"><title>29</title>
<path fill="none" stroke="#c6d856" stroke-width="2" d="M465,-828C465,-828 421,-828 421,-828 415,-828 409,-822 409,-816 409,-816 409,-804 409,-804 409,-798 415,-792 421,-792 421,-792 465,-792 465,-792 471,-792 477,-798 477,-804 477,-804 477,-816 477,-816 477,-822 471,-828 465,-828"/>
<text text-anchor="middle" x="443" y="-807.5" font-family="sans" font-size="10.00">split_fasta</text>
</g>
<!-- 29&#45;&gt;20 -->
<g id="edge45" class="edge"><title>29&#45;&gt;20</title>
<path fill="none" stroke="grey" stroke-width="2" d="M446.4,-791.883C450.028,-773.923 456.058,-744.896 462,-720 464.02,-711.539 466.382,-702.363 468.584,-694.061"/>
<polygon fill="grey" stroke="grey" points="472.037,-694.699 471.251,-684.133 465.277,-692.883 472.037,-694.699"/>
</g>
<!-- 29&#45;&gt;21 -->
<g id="edge47" class="edge"><title>29&#45;&gt;21</title>
<path fill="none" stroke="grey" stroke-width="2" d="M408.976,-801.699C383.432,-794.433 349.61,-780.687 330,-756 316.217,-738.649 311.834,-713.596 310.687,-694.488"/>
<polygon fill="grey" stroke="grey" points="314.179,-694.176 310.342,-684.3 307.183,-694.413 314.179,-694.176"/>
</g>
<!-- 30 -->
<g id="node31" class="node"><title>30</title>
<path fill="none" stroke="#5673d8" stroke-width="2" d="M535,-756C535,-756 483,-756 483,-756 477,-756 471,-750 471,-744 471,-744 471,-732 471,-732 471,-726 477,-720 483,-720 483,-720 535,-720 535,-720 541,-720 547,-726 547,-732 547,-732 547,-744 547,-744 547,-750 541,-756 535,-756"/>
<text text-anchor="middle" x="509" y="-741" font-family="sans" font-size="10.00">blastn_virus</text>
<text text-anchor="middle" x="509" y="-730" font-family="sans" font-size="10.00">n: 1</text>
</g>
<!-- 29&#45;&gt;30 -->
<g id="edge58" class="edge"><title>29&#45;&gt;30</title>
<path fill="none" stroke="grey" stroke-width="2" d="M459.315,-791.697C467.307,-783.22 477.072,-772.864 485.822,-763.583"/>
<polygon fill="grey" stroke="grey" points="488.559,-765.781 492.873,-756.104 483.466,-760.979 488.559,-765.781"/>
</g>
<!-- 31 -->
<g id="node32" class="node"><title>31</title>
<path fill="none" stroke="#5673d8" stroke-width="2" d="M403,-756C403,-756 351,-756 351,-756 345,-756 339,-750 339,-744 339,-744 339,-732 339,-732 339,-726 345,-720 351,-720 351,-720 403,-720 403,-720 409,-720 415,-726 415,-732 415,-732 415,-744 415,-744 415,-750 409,-756 403,-756"/>
<text text-anchor="middle" x="377" y="-741" font-family="sans" font-size="10.00">blastn_virus</text>
<text text-anchor="middle" x="377" y="-730" font-family="sans" font-size="10.00">n: 2</text>
</g>
<!-- 29&#45;&gt;31 -->
<g id="edge59" class="edge"><title>29&#45;&gt;31</title>
<path fill="none" stroke="grey" stroke-width="2" d="M426.685,-791.697C418.693,-783.22 408.928,-772.864 400.178,-763.583"/>
<polygon fill="grey" stroke="grey" points="402.534,-760.979 393.127,-756.104 397.441,-765.781 402.534,-760.979"/>
</g>
<!-- 30&#45;&gt;20 -->
<g id="edge46" class="edge"><title>30&#45;&gt;20</title>
<path fill="none" stroke="grey" stroke-width="2" d="M500.843,-719.697C497.086,-711.728 492.547,-702.1 488.382,-693.264"/>
<polygon fill="grey" stroke="grey" points="491.494,-691.657 484.063,-684.104 485.162,-694.642 491.494,-691.657"/>
</g>
<!-- 31&#45;&gt;21 -->
<g id="edge48" class="edge"><title>31&#45;&gt;21</title>
<path fill="none" stroke="grey" stroke-width="2" d="M360.685,-719.697C352.693,-711.22 342.928,-700.864 334.178,-691.583"/>
<polygon fill="grey" stroke="grey" points="336.534,-688.979 327.127,-684.104 331.441,-693.781 336.534,-688.979"/>
</g>
<!-- 32&#45;&gt;22 -->
<g id="edge50" class="edge"><title>32&#45;&gt;22</title>
<path fill="none" stroke="grey" stroke-width="2" d="M531,-575.697C531,-567.983 531,-558.712 531,-550.112"/>
<polygon fill="grey" stroke="grey" points="534.5,-550.104 531,-540.104 527.5,-550.104 534.5,-550.104"/>
</g>
<!-- 33&#45;&gt;23 -->
<g id="edge52" class="edge"><title>33&#45;&gt;23</title>
<path fill="none" stroke="grey" stroke-width="2" d="M130.473,-576.411C154.868,-566.653 185.936,-554.226 211.964,-543.814"/>
<polygon fill="grey" stroke="grey" points="213.319,-547.042 221.304,-540.078 210.719,-540.543 213.319,-547.042"/>
</g>
<!-- 34&#45;&gt;26 -->
<g id="edge55" class="edge"><title>34&#45;&gt;26</title>
<path fill="none" stroke="grey" stroke-width="2" d="M720,-1511.7C720,-1503.98 720,-1494.71 720,-1486.11"/>
<polygon fill="grey" stroke="grey" points="723.5,-1486.1 720,-1476.1 716.5,-1486.1 723.5,-1486.1"/>
</g>
<!-- 35 -->
<g id="node36" class="node"><title>35</title>
<path fill="none" stroke="#56d87b" stroke-width="2" d="M555,-900C555,-900 465,-900 465,-900 459,-900 453,-894 453,-888 453,-888 453,-876 453,-876 453,-870 459,-864 465,-864 465,-864 555,-864 555,-864 561,-864 567,-870 567,-876 567,-876 567,-888 567,-888 567,-894 561,-900 555,-900"/>
<text text-anchor="middle" x="510" y="-879.5" font-family="sans" font-size="10.00">repeatmasker_good</text>
</g>
<!-- 35&#45;&gt;29 -->
<g id="edge57" class="edge"><title>35&#45;&gt;29</title>
<path fill="none" stroke="grey" stroke-width="2" d="M493.438,-863.697C485.325,-855.22 475.412,-844.864 466.529,-835.583"/>
<polygon fill="grey" stroke="grey" points="468.814,-832.908 459.371,-828.104 463.757,-837.749 468.814,-832.908"/>
</g>
<!-- 36 -->
<g id="node37" class="node"><title>36</title>
<path fill="none" stroke="#56d88a" stroke-width="2" d="M611.25,-972C611.25,-972 550.75,-972 550.75,-972 544.75,-972 538.75,-966 538.75,-960 538.75,-960 538.75,-948 538.75,-948 538.75,-942 544.75,-936 550.75,-936 550.75,-936 611.25,-936 611.25,-936 617.25,-936 623.25,-942 623.25,-948 623.25,-948 623.25,-960 623.25,-960 623.25,-966 617.25,-972 611.25,-972"/>
<text text-anchor="middle" x="581" y="-951.5" font-family="sans" font-size="10.00">repeatmasker</text>
</g>
<!-- 36&#45;&gt;35 -->
<g id="edge63" class="edge"><title>36&#45;&gt;35</title>
<path fill="none" stroke="grey" stroke-width="2" d="M563.449,-935.697C554.766,-927.135 544.137,-916.656 534.652,-907.304"/>
<polygon fill="grey" stroke="grey" points="536.927,-904.633 527.349,-900.104 532.012,-909.617 536.927,-904.633"/>
</g>
<!-- 37 -->
<g id="node38" class="node"><title>37</title>
<path fill="none" stroke="#d8cb56" stroke-width="2" d="M607.25,-1044C607.25,-1044 554.75,-1044 554.75,-1044 548.75,-1044 542.75,-1038 542.75,-1032 542.75,-1032 542.75,-1020 542.75,-1020 542.75,-1014 548.75,-1008 554.75,-1008 554.75,-1008 607.25,-1008 607.25,-1008 613.25,-1008 619.25,-1014 619.25,-1020 619.25,-1020 619.25,-1032 619.25,-1032 619.25,-1038 613.25,-1044 607.25,-1044"/>
<text text-anchor="middle" x="581" y="-1023.5" font-family="sans" font-size="10.00">tantan_good</text>
</g>
<!-- 37&#45;&gt;35 -->
<g id="edge64" class="edge"><title>37&#45;&gt;35</title>
<path fill="none" stroke="grey" stroke-width="2" d="M559.029,-1007.79C548.404,-998.331 536.383,-985.739 529,-972 518.684,-952.804 513.969,-928.457 511.814,-910.082"/>
<polygon fill="grey" stroke="grey" points="515.288,-909.643 510.818,-900.038 508.322,-910.334 515.288,-909.643"/>
</g>
<!-- 37&#45;&gt;36 -->
<g id="edge65" class="edge"><title>37&#45;&gt;36</title>
<path fill="none" stroke="grey" stroke-width="2" d="M581,-1007.7C581,-999.983 581,-990.712 581,-982.112"/>
<polygon fill="grey" stroke="grey" points="584.5,-982.104 581,-972.104 577.5,-982.104 584.5,-982.104"/>
</g>
<!-- 38 -->
<g id="node39" class="node"><title>38</title>
<path fill="none" stroke="#d89556" stroke-width="2" d="M613,-1116C613,-1116 583,-1116 583,-1116 577,-1116 571,-1110 571,-1104 571,-1104 571,-1092 571,-1092 571,-1086 577,-1080 583,-1080 583,-1080 613,-1080 613,-1080 619,-1080 625,-1086 625,-1092 625,-1092 625,-1104 625,-1104 625,-1110 619,-1116 613,-1116"/>
<text text-anchor="middle" x="598" y="-1095.5" font-family="sans" font-size="10.00">tantan</text>
</g>
<!-- 38&#45;&gt;37 -->
<g id="edge66" class="edge"><title>38&#45;&gt;37</title>
<path fill="none" stroke="grey" stroke-width="2" d="M593.798,-1079.7C591.904,-1071.9 589.623,-1062.51 587.516,-1053.83"/>
<polygon fill="grey" stroke="grey" points="590.915,-1053 585.154,-1044.1 584.113,-1054.65 590.915,-1053"/>
</g>
<!-- 39&#45;&gt;38 -->
<g id="edge67" class="edge"><title>39&#45;&gt;38</title>
<path fill="none" stroke="grey" stroke-width="2" d="M623.596,-1151.7C619.725,-1143.73 615.048,-1134.1 610.757,-1125.26"/>
<polygon fill="grey" stroke="grey" points="613.825,-1123.57 606.308,-1116.1 607.529,-1126.63 613.825,-1123.57"/>
</g>
</g>
</svg>
