<?xml version="1.0" encoding="UTF-8" standalone="no"?>
<!DOCTYPE svg PUBLIC "-//W3C//DTD SVG 1.1//EN"
 "http://www.w3.org/Graphics/SVG/1.1/DTD/svg11.dtd">
<!-- Generated by graphviz version 2.40.1 (20161225.0304)
 -->
<!-- Title: snakemake_dag Pages: 1 -->
<svg width="866pt" height="1772pt"
 viewBox="0.00 0.00 866.21 1772.00" xmlns="http://www.w3.org/2000/svg" xmlns:xlink="http://www.w3.org/1999/xlink">
<g id="graph0" class="graph" transform="scale(1 1) rotate(0) translate(4 1768)">
<title>snakemake_dag</title>
<polygon fill="#ffffff" stroke="transparent" points="-4,4 -4,-1768 862.2081,-1768 862.2081,4 -4,4"/>
<!-- 0 -->
<g id="node1" class="node">
<title>0</title>
<path fill="none" stroke="#56d8c9" stroke-width="2" d="M622,-36C622,-36 592,-36 592,-36 586,-36 580,-30 580,-24 580,-24 580,-12 580,-12 580,-6 586,0 592,0 592,0 622,0 622,0 628,0 634,-6 634,-12 634,-12 634,-24 634,-24 634,-30 628,-36 622,-36"/>
<text text-anchor="middle" x="607" y="-15.5" font-family="sans" font-size="10.00" fill="#000000">all</text>
</g>
<!-- 1 -->
<g id="node2" class="node">
<title>1</title>
<path fill="none" stroke="#56d8d8" stroke-width="2" d="M651.5,-252C651.5,-252 540.5,-252 540.5,-252 534.5,-252 528.5,-246 528.5,-240 528.5,-240 528.5,-228 528.5,-228 528.5,-222 534.5,-216 540.5,-216 540.5,-216 651.5,-216 651.5,-216 657.5,-216 663.5,-222 663.5,-228 663.5,-228 663.5,-240 663.5,-240 663.5,-246 657.5,-252 651.5,-252"/>
<text text-anchor="middle" x="596" y="-231.5" font-family="sans" font-size="10.00" fill="#000000">classify_phages_viruses</text>
</g>
<!-- 1&#45;&gt;0 -->
<g id="edge1" class="edge">
<title>1&#45;&gt;0</title>
<path fill="none" stroke="#c0c0c0" stroke-width="2" d="M595.1458,-215.5103C594.7067,-205.0847 594.2188,-191.8186 594,-180 593.7039,-164.0027 593.1779,-159.9789 594,-144 595.7303,-110.3706 600.0417,-71.8918 603.2275,-46.3967"/>
<polygon fill="#c0c0c0" stroke="#c0c0c0" stroke-width="2" points="606.7197,-46.6796 604.5131,-36.3171 599.7759,-45.7939 606.7197,-46.6796"/>
</g>
<!-- 2 -->
<g id="node3" class="node">
<title>2</title>
<path fill="none" stroke="#56d87b" stroke-width="2" d="M665,-180C665,-180 615,-180 615,-180 609,-180 603,-174 603,-168 603,-168 603,-156 603,-156 603,-150 609,-144 615,-144 615,-144 665,-144 665,-144 671,-144 677,-150 677,-156 677,-156 677,-168 677,-168 677,-174 671,-180 665,-180"/>
<text text-anchor="middle" x="640" y="-159.5" font-family="sans" font-size="10.00" fill="#000000">query_taxid</text>
</g>
<!-- 1&#45;&gt;2 -->
<g id="edge13" class="edge">
<title>1&#45;&gt;2</title>
<path fill="none" stroke="#c0c0c0" stroke-width="2" d="M607.1031,-215.8314C612.0674,-207.7079 618.0222,-197.9637 623.4928,-189.0118"/>
<polygon fill="#c0c0c0" stroke="#c0c0c0" stroke-width="2" points="626.5194,-190.7712 628.7474,-180.4133 620.5464,-187.121 626.5194,-190.7712"/>
</g>
<!-- 2&#45;&gt;0 -->
<g id="edge2" class="edge">
<title>2&#45;&gt;0</title>
<path fill="none" stroke="#c0c0c0" stroke-width="2" d="M635.8205,-143.7623C630.1671,-119.0928 620.0304,-74.8598 613.4105,-45.9731"/>
<polygon fill="#c0c0c0" stroke="#c0c0c0" stroke-width="2" points="616.7909,-45.0551 611.1455,-36.0896 609.9678,-46.6188 616.7909,-45.0551"/>
</g>
<!-- 4 -->
<g id="node5" class="node">
<title>4</title>
<path fill="none" stroke="#56c1d8" stroke-width="2" d="M810.5,-108C810.5,-108 745.5,-108 745.5,-108 739.5,-108 733.5,-102 733.5,-96 733.5,-96 733.5,-84 733.5,-84 733.5,-78 739.5,-72 745.5,-72 745.5,-72 810.5,-72 810.5,-72 816.5,-72 822.5,-78 822.5,-84 822.5,-84 822.5,-96 822.5,-96 822.5,-102 816.5,-108 810.5,-108"/>
<text text-anchor="middle" x="778" y="-87.5" font-family="sans" font-size="10.00" fill="#000000">subset_contigs</text>
</g>
<!-- 2&#45;&gt;4 -->
<g id="edge17" class="edge">
<title>2&#45;&gt;4</title>
<path fill="none" stroke="#c0c0c0" stroke-width="2" d="M674.8232,-143.8314C692.8011,-134.4516 714.9203,-122.9112 734.0616,-112.9244"/>
<polygon fill="#c0c0c0" stroke="#c0c0c0" stroke-width="2" points="735.9411,-115.8916 743.1879,-108.1628 732.7031,-109.6855 735.9411,-115.8916"/>
</g>
<!-- 3 -->
<g id="node4" class="node">
<title>3</title>
<path fill="none" stroke="#56d86b" stroke-width="2" d="M413.5,-324C413.5,-324 328.5,-324 328.5,-324 322.5,-324 316.5,-318 316.5,-312 316.5,-312 316.5,-300 316.5,-300 316.5,-294 322.5,-288 328.5,-288 328.5,-288 413.5,-288 413.5,-288 419.5,-288 425.5,-294 425.5,-300 425.5,-300 425.5,-312 425.5,-312 425.5,-318 419.5,-324 413.5,-324"/>
<text text-anchor="middle" x="371" y="-303.5" font-family="sans" font-size="10.00" fill="#000000">merge_unassigned</text>
</g>
<!-- 3&#45;&gt;0 -->
<g id="edge3" class="edge">
<title>3&#45;&gt;0</title>
<path fill="none" stroke="#c0c0c0" stroke-width="2" d="M385.7629,-287.9843C426.1586,-238.6878 538.6302,-101.4344 585.777,-43.8993"/>
<polygon fill="#c0c0c0" stroke="#c0c0c0" stroke-width="2" points="588.6116,-45.9621 592.2427,-36.0089 583.1973,-41.5253 588.6116,-45.9621"/>
</g>
<!-- 7 -->
<g id="node8" class="node">
<title>7</title>
<path fill="none" stroke="#d6d856" stroke-width="2" d="M254,-252C254,-252 208,-252 208,-252 202,-252 196,-246 196,-240 196,-240 196,-228 196,-228 196,-222 202,-216 208,-216 208,-216 254,-216 254,-216 260,-216 266,-222 266,-228 266,-228 266,-240 266,-240 266,-246 260,-252 254,-252"/>
<text text-anchor="middle" x="231" y="-231.5" font-family="sans" font-size="10.00" fill="#000000">blast_stats</text>
</g>
<!-- 3&#45;&gt;7 -->
<g id="edge22" class="edge">
<title>3&#45;&gt;7</title>
<path fill="none" stroke="#c0c0c0" stroke-width="2" d="M335.6721,-287.8314C317.3507,-278.4089 294.7898,-266.8062 275.3105,-256.7883"/>
<polygon fill="#c0c0c0" stroke="#c0c0c0" stroke-width="2" points="276.8102,-253.6239 266.3166,-252.1628 273.6088,-259.8489 276.8102,-253.6239"/>
</g>
<!-- 4&#45;&gt;0 -->
<g id="edge4" class="edge">
<title>4&#45;&gt;0</title>
<path fill="none" stroke="#c0c0c0" stroke-width="2" d="M734.8495,-71.8314C706.6515,-59.9585 670.2318,-44.6239 643.4806,-33.3603"/>
<polygon fill="#c0c0c0" stroke="#c0c0c0" stroke-width="2" points="644.67,-30.0635 634.0955,-29.4086 641.9536,-36.515 644.67,-30.0635"/>
</g>
<!-- 5 -->
<g id="node6" class="node">
<title>5</title>
<path fill="none" stroke="#78d856" stroke-width="2" stroke-dasharray="5,2" d="M780,-324C780,-324 668,-324 668,-324 662,-324 656,-318 656,-312 656,-312 656,-300 656,-300 656,-294 662,-288 668,-288 668,-288 780,-288 780,-288 786,-288 792,-294 792,-300 792,-300 792,-312 792,-312 792,-318 786,-324 780,-324"/>
<text text-anchor="middle" x="724" y="-303.5" font-family="sans" font-size="10.00" fill="#000000">prepare_taxonomy_data</text>
</g>
<!-- 5&#45;&gt;0 -->
<g id="edge5" class="edge">
<title>5&#45;&gt;0</title>
<path fill="none" stroke="#c0c0c0" stroke-width="2" d="M721.7392,-287.9035C717.4879,-257.3168 706.7985,-193.857 686,-144 670.6167,-107.124 644.9631,-68.7876 627.0777,-44.2319"/>
<polygon fill="#c0c0c0" stroke="#c0c0c0" stroke-width="2" points="629.8617,-42.1101 621.105,-36.146 624.2312,-46.2691 629.8617,-42.1101"/>
</g>
<!-- 5&#45;&gt;1 -->
<g id="edge12" class="edge">
<title>5&#45;&gt;1</title>
<path fill="none" stroke="#c0c0c0" stroke-width="2" d="M691.7002,-287.8314C675.1766,-278.5368 654.8814,-267.1208 637.2393,-257.1971"/>
<polygon fill="#c0c0c0" stroke="#c0c0c0" stroke-width="2" points="638.7212,-254.015 628.2895,-252.1628 635.2893,-260.116 638.7212,-254.015"/>
</g>
<!-- 6 -->
<g id="node7" class="node">
<title>6</title>
<path fill="none" stroke="#d88556" stroke-width="2" d="M252,-1548C252,-1548 150,-1548 150,-1548 144,-1548 138,-1542 138,-1536 138,-1536 138,-1524 138,-1524 138,-1518 144,-1512 150,-1512 150,-1512 252,-1512 252,-1512 258,-1512 264,-1518 264,-1524 264,-1524 264,-1536 264,-1536 264,-1542 258,-1548 252,-1548"/>
<text text-anchor="middle" x="201" y="-1527.5" font-family="sans" font-size="10.00" fill="#000000">refgenome_bam_stats</text>
</g>
<!-- 6&#45;&gt;0 -->
<g id="edge6" class="edge">
<title>6&#45;&gt;0</title>
<path fill="none" stroke="#c0c0c0" stroke-width="2" d="M137.9538,-1513.5968C79.0071,-1494.0062 0,-1454.8977 0,-1386 0,-1386 0,-1386 0,-162 0,-44.2903 437.6048,-22.6556 569.6947,-18.8065"/>
<polygon fill="#c0c0c0" stroke="#c0c0c0" stroke-width="2" points="569.8389,-22.3039 579.7393,-18.5313 569.6471,-15.3065 569.8389,-22.3039"/>
</g>
<!-- 7&#45;&gt;0 -->
<g id="edge7" class="edge">
<title>7&#45;&gt;0</title>
<path fill="none" stroke="#c0c0c0" stroke-width="2" d="M248.1947,-215.9723C280.7078,-182.8709 354.7143,-112.1264 430,-72 475.3518,-47.828 533.1346,-32.7802 570.1065,-24.8917"/>
<polygon fill="#c0c0c0" stroke="#c0c0c0" stroke-width="2" points="570.8711,-28.3077 579.955,-22.8549 569.4533,-21.4528 570.8711,-28.3077"/>
</g>
<!-- 8 -->
<g id="node9" class="node">
<title>8</title>
<path fill="none" stroke="#c6d856" stroke-width="2" d="M703,-1332C703,-1332 665,-1332 665,-1332 659,-1332 653,-1326 653,-1320 653,-1320 653,-1308 653,-1308 653,-1302 659,-1296 665,-1296 665,-1296 703,-1296 703,-1296 709,-1296 715,-1302 715,-1308 715,-1308 715,-1320 715,-1320 715,-1326 709,-1332 703,-1332"/>
<text text-anchor="middle" x="684" y="-1311.5" font-family="sans" font-size="10.00" fill="#000000">coverage</text>
</g>
<!-- 8&#45;&gt;0 -->
<g id="edge8" class="edge">
<title>8&#45;&gt;0</title>
<path fill="none" stroke="#c0c0c0" stroke-width="2" d="M715.1077,-1304.2363C765.1563,-1286.3632 858,-1243.3255 858,-1170 858,-1170 858,-1170 858,-162 858,-120.2388 861.329,-100.708 831,-72 804.334,-46.7591 700.7278,-29.9505 644.2391,-22.46"/>
<polygon fill="#c0c0c0" stroke="#c0c0c0" stroke-width="2" points="644.6354,-18.9822 634.2689,-21.1699 643.737,-25.9244 644.6354,-18.9822"/>
</g>
<!-- 14 -->
<g id="node15" class="node">
<title>14</title>
<path fill="none" stroke="#97d856" stroke-width="2" d="M682.5,-1260C682.5,-1260 615.5,-1260 615.5,-1260 609.5,-1260 603.5,-1254 603.5,-1248 603.5,-1248 603.5,-1236 603.5,-1236 603.5,-1230 609.5,-1224 615.5,-1224 615.5,-1224 682.5,-1224 682.5,-1224 688.5,-1224 694.5,-1230 694.5,-1236 694.5,-1236 694.5,-1248 694.5,-1248 694.5,-1254 688.5,-1260 682.5,-1260"/>
<text text-anchor="middle" x="649" y="-1239.5" font-family="sans" font-size="10.00" fill="#000000">coverage_good</text>
</g>
<!-- 8&#45;&gt;14 -->
<g id="edge35" class="edge">
<title>8&#45;&gt;14</title>
<path fill="none" stroke="#c0c0c0" stroke-width="2" d="M675.168,-1295.8314C671.3014,-1287.8771 666.6794,-1278.369 662.4032,-1269.5723"/>
<polygon fill="#c0c0c0" stroke="#c0c0c0" stroke-width="2" points="665.4707,-1267.8768 657.9509,-1260.4133 659.1751,-1270.9371 665.4707,-1267.8768"/>
</g>
<!-- 9 -->
<g id="node10" class="node">
<title>9</title>
<path fill="none" stroke="#5682d8" stroke-width="2" d="M459,-612C459,-612 351,-612 351,-612 345,-612 339,-606 339,-600 339,-600 339,-588 339,-588 339,-582 345,-576 351,-576 351,-576 459,-576 459,-576 465,-576 471,-582 471,-588 471,-588 471,-600 471,-600 471,-606 465,-612 459,-612"/>
<text text-anchor="middle" x="405" y="-597" font-family="sans" font-size="10.00" fill="#000000">merge_blast_results</text>
<text text-anchor="middle" x="405" y="-586" font-family="sans" font-size="10.00" fill="#000000">blastresult: blastn&#45;virus</text>
</g>
<!-- 9&#45;&gt;1 -->
<g id="edge9" class="edge">
<title>9&#45;&gt;1</title>
<path fill="none" stroke="#c0c0c0" stroke-width="2" d="M471.2477,-577.0381C525.184,-562.981 593.181,-544.5888 598,-540 628.5347,-510.9241 628,-492.1637 628,-450 628,-450 628,-450 628,-378 628,-336.9442 615.4511,-290.8385 606.0701,-262.1076"/>
<polygon fill="#c0c0c0" stroke="#c0c0c0" stroke-width="2" points="609.2932,-260.7116 602.7864,-252.3503 602.6589,-262.9443 609.2932,-260.7116"/>
</g>
<!-- 10 -->
<g id="node11" class="node">
<title>10</title>
<path fill="none" stroke="#5682d8" stroke-width="2" d="M470,-468C470,-468 354,-468 354,-468 348,-468 342,-462 342,-456 342,-456 342,-444 342,-444 342,-438 348,-432 354,-432 354,-432 470,-432 470,-432 476,-432 482,-438 482,-444 482,-444 482,-456 482,-456 482,-462 476,-468 470,-468"/>
<text text-anchor="middle" x="412" y="-453" font-family="sans" font-size="10.00" fill="#000000">merge_blast_results</text>
<text text-anchor="middle" x="412" y="-442" font-family="sans" font-size="10.00" fill="#000000">blastresult: megablast&#45;nt</text>
</g>
<!-- 10&#45;&gt;1 -->
<g id="edge10" class="edge">
<title>10&#45;&gt;1</title>
<path fill="none" stroke="#c0c0c0" stroke-width="2" d="M479.6634,-431.9504C512.7457,-421.8249 547.8192,-408.7057 559,-396 591.989,-358.512 597.2826,-297.6564 597.2514,-262.1717"/>
<polygon fill="#c0c0c0" stroke="#c0c0c0" stroke-width="2" points="600.7489,-261.9727 597.0956,-252.0277 593.7497,-262.0803 600.7489,-261.9727"/>
</g>
<!-- 11 -->
<g id="node12" class="node">
<title>11</title>
<path fill="none" stroke="#5682d8" stroke-width="2" d="M550,-324C550,-324 456,-324 456,-324 450,-324 444,-318 444,-312 444,-312 444,-300 444,-300 444,-294 450,-288 456,-288 456,-288 550,-288 550,-288 556,-288 562,-294 562,-300 562,-300 562,-312 562,-312 562,-318 556,-324 550,-324"/>
<text text-anchor="middle" x="503" y="-309" font-family="sans" font-size="10.00" fill="#000000">merge_blast_results</text>
<text text-anchor="middle" x="503" y="-298" font-family="sans" font-size="10.00" fill="#000000">blastresult: blastn&#45;nt</text>
</g>
<!-- 11&#45;&gt;1 -->
<g id="edge11" class="edge">
<title>11&#45;&gt;1</title>
<path fill="none" stroke="#c0c0c0" stroke-width="2" d="M526.4678,-287.8314C538.0327,-278.8779 552.1404,-267.9558 564.6183,-258.2955"/>
<polygon fill="#c0c0c0" stroke="#c0c0c0" stroke-width="2" points="566.775,-261.0521 572.5397,-252.1628 562.4898,-255.5171 566.775,-261.0521"/>
</g>
<!-- 12 -->
<g id="node13" class="node">
<title>12</title>
<path fill="none" stroke="#d86656" stroke-width="2" d="M538,-396C538,-396 468,-396 468,-396 462,-396 456,-390 456,-384 456,-384 456,-372 456,-372 456,-366 462,-360 468,-360 468,-360 538,-360 538,-360 544,-360 550,-366 550,-372 550,-372 550,-384 550,-384 550,-390 544,-396 538,-396"/>
<text text-anchor="middle" x="503" y="-375.5" font-family="sans" font-size="10.00" fill="#000000">parse_blastn_nt</text>
</g>
<!-- 12&#45;&gt;3 -->
<g id="edge14" class="edge">
<title>12&#45;&gt;3</title>
<path fill="none" stroke="#c0c0c0" stroke-width="2" d="M469.6908,-359.8314C452.5727,-350.4942 431.5294,-339.016 413.2778,-329.0606"/>
<polygon fill="#c0c0c0" stroke="#c0c0c0" stroke-width="2" points="414.7535,-325.8788 404.2985,-324.1628 411.4015,-332.024 414.7535,-325.8788"/>
</g>
<!-- 12&#45;&gt;11 -->
<g id="edge28" class="edge">
<title>12&#45;&gt;11</title>
<path fill="none" stroke="#c0c0c0" stroke-width="2" d="M503,-359.8314C503,-352.131 503,-342.9743 503,-334.4166"/>
<polygon fill="#c0c0c0" stroke="#c0c0c0" stroke-width="2" points="506.5001,-334.4132 503,-324.4133 499.5001,-334.4133 506.5001,-334.4132"/>
</g>
<!-- 18 -->
<g id="node19" class="node">
<title>18</title>
<path fill="none" stroke="#56a2d8" stroke-width="2" d="M286,-324C286,-324 176,-324 176,-324 170,-324 164,-318 164,-312 164,-312 164,-300 164,-300 164,-294 170,-288 176,-288 176,-288 286,-288 286,-288 292,-288 298,-294 298,-300 298,-300 298,-312 298,-312 298,-318 292,-324 286,-324"/>
<text text-anchor="middle" x="231" y="-309" font-family="sans" font-size="10.00" fill="#000000">merge_blast_unmapped</text>
<text text-anchor="middle" x="231" y="-298" font-family="sans" font-size="10.00" fill="#000000">blastresult: blastn&#45;nt</text>
</g>
<!-- 12&#45;&gt;18 -->
<g id="edge41" class="edge">
<title>12&#45;&gt;18</title>
<path fill="none" stroke="#c0c0c0" stroke-width="2" d="M455.9317,-365.5408C415.177,-354.7527 355.4487,-338.9423 307.7815,-326.3245"/>
<polygon fill="#c0c0c0" stroke="#c0c0c0" stroke-width="2" points="308.6742,-322.9403 298.1115,-323.7648 306.8829,-329.7073 308.6742,-322.9403"/>
</g>
<!-- 13 -->
<g id="node14" class="node">
<title>13</title>
<path fill="none" stroke="#d86656" stroke-width="2" d="M349,-396C349,-396 279,-396 279,-396 273,-396 267,-390 267,-384 267,-384 267,-372 267,-372 267,-366 273,-360 279,-360 279,-360 349,-360 349,-360 355,-360 361,-366 361,-372 361,-372 361,-384 361,-384 361,-390 355,-396 349,-396"/>
<text text-anchor="middle" x="314" y="-375.5" font-family="sans" font-size="10.00" fill="#000000">parse_blastn_nt</text>
</g>
<!-- 13&#45;&gt;3 -->
<g id="edge15" class="edge">
<title>13&#45;&gt;3</title>
<path fill="none" stroke="#c0c0c0" stroke-width="2" d="M328.3835,-359.8314C334.9486,-351.5386 342.8507,-341.557 350.0578,-332.4533"/>
<polygon fill="#c0c0c0" stroke="#c0c0c0" stroke-width="2" points="352.9599,-334.4262 356.4228,-324.4133 347.4716,-330.0813 352.9599,-334.4262"/>
</g>
<!-- 13&#45;&gt;11 -->
<g id="edge29" class="edge">
<title>13&#45;&gt;11</title>
<path fill="none" stroke="#c0c0c0" stroke-width="2" d="M361.2051,-360.0171C387.0257,-350.1807 419.1933,-337.9264 446.3597,-327.5773"/>
<polygon fill="#c0c0c0" stroke="#c0c0c0" stroke-width="2" points="447.6427,-330.8339 455.7416,-324.0032 445.1507,-324.2925 447.6427,-330.8339"/>
</g>
<!-- 13&#45;&gt;18 -->
<g id="edge42" class="edge">
<title>13&#45;&gt;18</title>
<path fill="none" stroke="#c0c0c0" stroke-width="2" d="M293.0556,-359.8314C282.9309,-351.0485 270.6223,-340.3712 259.6452,-330.8489"/>
<polygon fill="#c0c0c0" stroke="#c0c0c0" stroke-width="2" points="261.7851,-328.0718 251.9377,-324.1628 257.1981,-333.3595 261.7851,-328.0718"/>
</g>
<!-- 14&#45;&gt;4 -->
<g id="edge16" class="edge">
<title>14&#45;&gt;4</title>
<path fill="none" stroke="#c0c0c0" stroke-width="2" d="M694.8249,-1226.137C745.4771,-1205.338 820,-1163.5918 820,-1098 820,-1098 820,-1098 820,-234 820,-192.0688 803.3848,-145.918 791.0552,-117.4435"/>
<polygon fill="#c0c0c0" stroke="#c0c0c0" stroke-width="2" points="794.1775,-115.8513 786.9071,-108.1447 787.7848,-118.7032 794.1775,-115.8513"/>
</g>
<!-- 39 -->
<g id="node40" class="node">
<title>39</title>
<path fill="none" stroke="#70d856" stroke-width="2" d="M647,-1188C647,-1188 617,-1188 617,-1188 611,-1188 605,-1182 605,-1176 605,-1176 605,-1164 605,-1164 605,-1158 611,-1152 617,-1152 617,-1152 647,-1152 647,-1152 653,-1152 659,-1158 659,-1164 659,-1164 659,-1176 659,-1176 659,-1182 653,-1188 647,-1188"/>
<text text-anchor="middle" x="632" y="-1167.5" font-family="sans" font-size="10.00" fill="#000000">cd_hit</text>
</g>
<!-- 14&#45;&gt;39 -->
<g id="edge68" class="edge">
<title>14&#45;&gt;39</title>
<path fill="none" stroke="#c0c0c0" stroke-width="2" d="M644.7102,-1223.8314C642.892,-1216.131 640.7301,-1206.9743 638.7095,-1198.4166"/>
<polygon fill="#c0c0c0" stroke="#c0c0c0" stroke-width="2" points="642.0519,-1197.3414 636.3476,-1188.4133 635.2392,-1198.95 642.0519,-1197.3414"/>
</g>
<!-- 15 -->
<g id="node16" class="node">
<title>15</title>
<path fill="none" stroke="#5663d8" stroke-width="2" d="M603,-1692C603,-1692 501,-1692 501,-1692 495,-1692 489,-1686 489,-1680 489,-1680 489,-1668 489,-1668 489,-1662 495,-1656 501,-1656 501,-1656 603,-1656 603,-1656 609,-1656 615,-1662 615,-1668 615,-1668 615,-1680 615,-1680 615,-1686 609,-1692 603,-1692"/>
<text text-anchor="middle" x="552" y="-1671.5" font-family="sans" font-size="10.00" fill="#000000">bwa_mem_refgenome</text>
</g>
<!-- 15&#45;&gt;6 -->
<g id="edge18" class="edge">
<title>15&#45;&gt;6</title>
<path fill="none" stroke="#c0c0c0" stroke-width="2" d="M507.901,-1655.9081C443.4511,-1629.4671 323.6808,-1580.3306 254.355,-1551.8892"/>
<polygon fill="#c0c0c0" stroke="#c0c0c0" stroke-width="2" points="255.4987,-1548.5754 244.9186,-1548.0179 252.8418,-1555.0516 255.4987,-1548.5754"/>
</g>
<!-- 28 -->
<g id="node29" class="node">
<title>28</title>
<path fill="none" stroke="#88d856" stroke-width="2" d="M659.5,-1620C659.5,-1620 556.5,-1620 556.5,-1620 550.5,-1620 544.5,-1614 544.5,-1608 544.5,-1608 544.5,-1596 544.5,-1596 544.5,-1590 550.5,-1584 556.5,-1584 556.5,-1584 659.5,-1584 659.5,-1584 665.5,-1584 671.5,-1590 671.5,-1596 671.5,-1596 671.5,-1608 671.5,-1608 671.5,-1614 665.5,-1620 659.5,-1620"/>
<text text-anchor="middle" x="608" y="-1599.5" font-family="sans" font-size="10.00" fill="#000000">unmapped_refgenome</text>
</g>
<!-- 15&#45;&gt;28 -->
<g id="edge56" class="edge">
<title>15&#45;&gt;28</title>
<path fill="none" stroke="#c0c0c0" stroke-width="2" d="M566.1312,-1655.8314C572.5811,-1647.5386 580.3445,-1637.557 587.4252,-1628.4533"/>
<polygon fill="#c0c0c0" stroke="#c0c0c0" stroke-width="2" points="590.3019,-1630.4556 593.6786,-1620.4133 584.7764,-1626.158 590.3019,-1630.4556"/>
</g>
<!-- 16 -->
<g id="node17" class="node">
<title>16</title>
<path fill="none" stroke="#56a2d8" stroke-width="2" d="M271,-612C271,-612 161,-612 161,-612 155,-612 149,-606 149,-600 149,-600 149,-588 149,-588 149,-582 155,-576 161,-576 161,-576 271,-576 271,-576 277,-576 283,-582 283,-588 283,-588 283,-600 283,-600 283,-606 277,-612 271,-612"/>
<text text-anchor="middle" x="216" y="-597" font-family="sans" font-size="10.00" fill="#000000">merge_blast_unmapped</text>
<text text-anchor="middle" x="216" y="-586" font-family="sans" font-size="10.00" fill="#000000">blastresult: blastn&#45;virus</text>
</g>
<!-- 16&#45;&gt;7 -->
<g id="edge19" class="edge">
<title>16&#45;&gt;7</title>
<path fill="none" stroke="#c0c0c0" stroke-width="2" d="M161.1417,-575.8627C108.8411,-554.7033 38,-514.1946 38,-450 38,-450 38,-450 38,-378 38,-304.6457 128.6687,-264.1977 185.7158,-246.0082"/>
<polygon fill="#c0c0c0" stroke="#c0c0c0" stroke-width="2" points="187.0703,-249.2536 195.6008,-242.9702 185.0138,-242.5624 187.0703,-249.2536"/>
</g>
<!-- 17 -->
<g id="node18" class="node">
<title>17</title>
<path fill="none" stroke="#56a2d8" stroke-width="2" d="M274,-468C274,-468 158,-468 158,-468 152,-468 146,-462 146,-456 146,-456 146,-444 146,-444 146,-438 152,-432 158,-432 158,-432 274,-432 274,-432 280,-432 286,-438 286,-444 286,-444 286,-456 286,-456 286,-462 280,-468 274,-468"/>
<text text-anchor="middle" x="216" y="-453" font-family="sans" font-size="10.00" fill="#000000">merge_blast_unmapped</text>
<text text-anchor="middle" x="216" y="-442" font-family="sans" font-size="10.00" fill="#000000">blastresult: megablast&#45;nt</text>
</g>
<!-- 17&#45;&gt;7 -->
<g id="edge20" class="edge">
<title>17&#45;&gt;7</title>
<path fill="none" stroke="#c0c0c0" stroke-width="2" d="M199.4764,-431.9212C173.6528,-401.3604 129.2222,-337.938 155,-288 162.0577,-274.3274 174.3536,-263.3629 187.0243,-254.9807"/>
<polygon fill="#c0c0c0" stroke="#c0c0c0" stroke-width="2" points="189.1099,-257.8071 195.7963,-249.5886 185.4442,-251.8436 189.1099,-257.8071"/>
</g>
<!-- 18&#45;&gt;7 -->
<g id="edge21" class="edge">
<title>18&#45;&gt;7</title>
<path fill="none" stroke="#c0c0c0" stroke-width="2" d="M231,-287.8314C231,-280.131 231,-270.9743 231,-262.4166"/>
<polygon fill="#c0c0c0" stroke="#c0c0c0" stroke-width="2" points="234.5001,-262.4132 231,-252.4133 227.5001,-262.4133 234.5001,-262.4132"/>
</g>
<!-- 19 -->
<g id="node20" class="node">
<title>19</title>
<path fill="none" stroke="#56b1d8" stroke-width="2" d="M699,-1404C699,-1404 669,-1404 669,-1404 663,-1404 657,-1398 657,-1392 657,-1392 657,-1380 657,-1380 657,-1374 663,-1368 669,-1368 669,-1368 699,-1368 699,-1368 705,-1368 711,-1374 711,-1380 711,-1380 711,-1392 711,-1392 711,-1398 705,-1404 699,-1404"/>
<text text-anchor="middle" x="684" y="-1383.5" font-family="sans" font-size="10.00" fill="#000000">bbwrap</text>
</g>
<!-- 19&#45;&gt;8 -->
<g id="edge23" class="edge">
<title>19&#45;&gt;8</title>
<path fill="none" stroke="#c0c0c0" stroke-width="2" d="M684,-1367.8314C684,-1360.131 684,-1350.9743 684,-1342.4166"/>
<polygon fill="#c0c0c0" stroke="#c0c0c0" stroke-width="2" points="687.5001,-1342.4132 684,-1332.4133 680.5001,-1342.4133 687.5001,-1342.4132"/>
</g>
<!-- 20 -->
<g id="node21" class="node">
<title>20</title>
<path fill="none" stroke="#d87556" stroke-width="2" d="M518,-684C518,-684 434,-684 434,-684 428,-684 422,-678 422,-672 422,-672 422,-660 422,-660 422,-654 428,-648 434,-648 434,-648 518,-648 518,-648 524,-648 530,-654 530,-660 530,-660 530,-672 530,-672 530,-678 524,-684 518,-684"/>
<text text-anchor="middle" x="476" y="-663.5" font-family="sans" font-size="10.00" fill="#000000">parse_blastn_virus</text>
</g>
<!-- 20&#45;&gt;9 -->
<g id="edge24" class="edge">
<title>20&#45;&gt;9</title>
<path fill="none" stroke="#c0c0c0" stroke-width="2" d="M458.0837,-647.8314C449.6558,-639.2848 439.459,-628.9443 430.264,-619.6198"/>
<polygon fill="#c0c0c0" stroke="#c0c0c0" stroke-width="2" points="432.6711,-617.0761 423.1575,-612.4133 427.6869,-621.9912 432.6711,-617.0761"/>
</g>
<!-- 20&#45;&gt;16 -->
<g id="edge37" class="edge">
<title>20&#45;&gt;16</title>
<path fill="none" stroke="#c0c0c0" stroke-width="2" d="M421.812,-650.9941C383.9226,-640.5016 332.8262,-626.3519 291.0253,-614.7762"/>
<polygon fill="#c0c0c0" stroke="#c0c0c0" stroke-width="2" points="291.7341,-611.3409 281.1627,-612.0451 289.8659,-618.087 291.7341,-611.3409"/>
</g>
<!-- 22 -->
<g id="node23" class="node">
<title>22</title>
<path fill="none" stroke="#56d8a9" stroke-width="2" d="M577,-540C577,-540 485,-540 485,-540 479,-540 473,-534 473,-528 473,-528 473,-516 473,-516 473,-510 479,-504 485,-504 485,-504 577,-504 577,-504 583,-504 589,-510 589,-516 589,-516 589,-528 589,-528 589,-534 583,-540 577,-540"/>
<text text-anchor="middle" x="531" y="-519.5" font-family="sans" font-size="10.00" fill="#000000">parse_megablast_nt</text>
</g>
<!-- 20&#45;&gt;22 -->
<g id="edge49" class="edge">
<title>20&#45;&gt;22</title>
<path fill="none" stroke="#c0c0c0" stroke-width="2" d="M530.2445,-651.2115C549.7345,-642.9941 569.6818,-630.548 581,-612 594.0348,-590.6388 577.8592,-565.7249 560.5237,-547.5326"/>
<polygon fill="#c0c0c0" stroke="#c0c0c0" stroke-width="2" points="562.6706,-544.7326 553.1049,-540.1774 557.7422,-549.7036 562.6706,-544.7326"/>
</g>
<!-- 32 -->
<g id="node33" class="node">
<title>32</title>
<path fill="none" stroke="#56d8b9" stroke-width="2" d="M560.5,-612C560.5,-612 501.5,-612 501.5,-612 495.5,-612 489.5,-606 489.5,-600 489.5,-600 489.5,-588 489.5,-588 489.5,-582 495.5,-576 501.5,-576 501.5,-576 560.5,-576 560.5,-576 566.5,-576 572.5,-582 572.5,-588 572.5,-588 572.5,-600 572.5,-600 572.5,-606 566.5,-612 560.5,-612"/>
<text text-anchor="middle" x="531" y="-591.5" font-family="sans" font-size="10.00" fill="#000000">megablast_nt</text>
</g>
<!-- 20&#45;&gt;32 -->
<g id="edge60" class="edge">
<title>20&#45;&gt;32</title>
<path fill="none" stroke="#c0c0c0" stroke-width="2" d="M489.8788,-647.8314C496.2136,-639.5386 503.8384,-629.557 510.7926,-620.4533"/>
<polygon fill="#c0c0c0" stroke="#c0c0c0" stroke-width="2" points="513.6452,-622.4847 516.9343,-612.4133 508.0825,-618.2353 513.6452,-622.4847"/>
</g>
<!-- 21 -->
<g id="node22" class="node">
<title>21</title>
<path fill="none" stroke="#d87556" stroke-width="2" d="M353,-684C353,-684 269,-684 269,-684 263,-684 257,-678 257,-672 257,-672 257,-660 257,-660 257,-654 263,-648 269,-648 269,-648 353,-648 353,-648 359,-648 365,-654 365,-660 365,-660 365,-672 365,-672 365,-678 359,-684 353,-684"/>
<text text-anchor="middle" x="311" y="-663.5" font-family="sans" font-size="10.00" fill="#000000">parse_blastn_virus</text>
</g>
<!-- 21&#45;&gt;9 -->
<g id="edge25" class="edge">
<title>21&#45;&gt;9</title>
<path fill="none" stroke="#c0c0c0" stroke-width="2" d="M334.7202,-647.8314C346.4094,-638.8779 360.6688,-627.9558 373.2809,-618.2955"/>
<polygon fill="#c0c0c0" stroke="#c0c0c0" stroke-width="2" points="375.4769,-621.0222 381.2874,-612.1628 371.2203,-615.4651 375.4769,-621.0222"/>
</g>
<!-- 21&#45;&gt;16 -->
<g id="edge38" class="edge">
<title>21&#45;&gt;16</title>
<path fill="none" stroke="#c0c0c0" stroke-width="2" d="M287.0275,-647.8314C275.2139,-638.8779 260.8028,-627.9558 248.0565,-618.2955"/>
<polygon fill="#c0c0c0" stroke="#c0c0c0" stroke-width="2" points="250.0486,-615.4137 239.9648,-612.1628 245.8205,-620.9925 250.0486,-615.4137"/>
</g>
<!-- 23 -->
<g id="node24" class="node">
<title>23</title>
<path fill="none" stroke="#56d8a9" stroke-width="2" d="M309,-540C309,-540 217,-540 217,-540 211,-540 205,-534 205,-528 205,-528 205,-516 205,-516 205,-510 211,-504 217,-504 217,-504 309,-504 309,-504 315,-504 321,-510 321,-516 321,-516 321,-528 321,-528 321,-534 315,-540 309,-540"/>
<text text-anchor="middle" x="263" y="-519.5" font-family="sans" font-size="10.00" fill="#000000">parse_megablast_nt</text>
</g>
<!-- 21&#45;&gt;23 -->
<g id="edge51" class="edge">
<title>21&#45;&gt;23</title>
<path fill="none" stroke="#c0c0c0" stroke-width="2" d="M308.7391,-647.9931C306.0662,-629.5194 300.8269,-600.148 292,-576 288.7085,-566.9955 284.142,-557.6408 279.6056,-549.2976"/>
<polygon fill="#c0c0c0" stroke="#c0c0c0" stroke-width="2" points="282.5333,-547.3642 274.5662,-540.3802 276.4391,-550.8082 282.5333,-547.3642"/>
</g>
<!-- 33 -->
<g id="node34" class="node">
<title>33</title>
<path fill="none" stroke="#56d8b9" stroke-width="2" d="M118.5,-612C118.5,-612 59.5,-612 59.5,-612 53.5,-612 47.5,-606 47.5,-600 47.5,-600 47.5,-588 47.5,-588 47.5,-582 53.5,-576 59.5,-576 59.5,-576 118.5,-576 118.5,-576 124.5,-576 130.5,-582 130.5,-588 130.5,-588 130.5,-600 130.5,-600 130.5,-606 124.5,-612 118.5,-612"/>
<text text-anchor="middle" x="89" y="-591.5" font-family="sans" font-size="10.00" fill="#000000">megablast_nt</text>
</g>
<!-- 21&#45;&gt;33 -->
<g id="edge61" class="edge">
<title>21&#45;&gt;33</title>
<path fill="none" stroke="#c0c0c0" stroke-width="2" d="M256.9396,-649.435C225.4601,-639.6722 184.8052,-626.8653 140.2698,-612.0419"/>
<polygon fill="#c0c0c0" stroke="#c0c0c0" stroke-width="2" points="141.3032,-608.6971 130.7094,-608.8486 139.0854,-615.3365 141.3032,-608.6971"/>
</g>
<!-- 22&#45;&gt;10 -->
<g id="edge26" class="edge">
<title>22&#45;&gt;10</title>
<path fill="none" stroke="#c0c0c0" stroke-width="2" d="M500.9713,-503.8314C485.7504,-494.6221 467.0872,-483.3301 450.7917,-473.4706"/>
<polygon fill="#c0c0c0" stroke="#c0c0c0" stroke-width="2" points="452.3868,-470.345 442.0191,-468.1628 448.7631,-476.3341 452.3868,-470.345"/>
</g>
<!-- 22&#45;&gt;12 -->
<g id="edge30" class="edge">
<title>22&#45;&gt;12</title>
<path fill="none" stroke="#c0c0c0" stroke-width="2" d="M548.6747,-503.9169C564.2966,-485.6336 582.8955,-456.6364 571,-432 565.3106,-420.2168 555.6622,-410.2163 545.3935,-402.144"/>
<polygon fill="#c0c0c0" stroke="#c0c0c0" stroke-width="2" points="547.2307,-399.152 537.089,-396.0865 543.1055,-404.8073 547.2307,-399.152"/>
</g>
<!-- 22&#45;&gt;17 -->
<g id="edge39" class="edge">
<title>22&#45;&gt;17</title>
<path fill="none" stroke="#c0c0c0" stroke-width="2" d="M472.8571,-508.7102C423.2371,-497.3685 351.3792,-480.9438 296.2779,-468.3492"/>
<polygon fill="#c0c0c0" stroke="#c0c0c0" stroke-width="2" points="296.7219,-464.8605 286.1934,-466.0442 295.1621,-471.6845 296.7219,-464.8605"/>
</g>
<!-- 24 -->
<g id="node25" class="node">
<title>24</title>
<path fill="none" stroke="#b6d856" stroke-width="2" d="M550,-468C550,-468 512,-468 512,-468 506,-468 500,-462 500,-456 500,-456 500,-444 500,-444 500,-438 506,-432 512,-432 512,-432 550,-432 550,-432 556,-432 562,-438 562,-444 562,-444 562,-456 562,-456 562,-462 556,-468 550,-468"/>
<text text-anchor="middle" x="531" y="-447.5" font-family="sans" font-size="10.00" fill="#000000">blastn_nt</text>
</g>
<!-- 22&#45;&gt;24 -->
<g id="edge53" class="edge">
<title>22&#45;&gt;24</title>
<path fill="none" stroke="#c0c0c0" stroke-width="2" d="M531,-503.8314C531,-496.131 531,-486.9743 531,-478.4166"/>
<polygon fill="#c0c0c0" stroke="#c0c0c0" stroke-width="2" points="534.5001,-478.4132 531,-468.4133 527.5001,-478.4133 534.5001,-478.4132"/>
</g>
<!-- 23&#45;&gt;10 -->
<g id="edge27" class="edge">
<title>23&#45;&gt;10</title>
<path fill="none" stroke="#c0c0c0" stroke-width="2" d="M300.599,-503.8314C320.3497,-494.2874 344.7297,-482.5065 365.6417,-472.4013"/>
<polygon fill="#c0c0c0" stroke="#c0c0c0" stroke-width="2" points="367.1903,-475.5403 374.6714,-468.038 364.1447,-469.2376 367.1903,-475.5403"/>
</g>
<!-- 23&#45;&gt;13 -->
<g id="edge32" class="edge">
<title>23&#45;&gt;13</title>
<path fill="none" stroke="#c0c0c0" stroke-width="2" d="M275.8372,-503.7775C282.4335,-493.6539 290.0946,-480.591 295,-468 302.8022,-447.9736 307.6521,-424.1291 310.4975,-406.0161"/>
<polygon fill="#c0c0c0" stroke="#c0c0c0" stroke-width="2" points="313.9658,-406.4869 311.9484,-396.0859 307.0394,-405.4748 313.9658,-406.4869"/>
</g>
<!-- 23&#45;&gt;17 -->
<g id="edge40" class="edge">
<title>23&#45;&gt;17</title>
<path fill="none" stroke="#c0c0c0" stroke-width="2" d="M251.1399,-503.8314C245.8371,-495.7079 239.4763,-485.9637 233.6327,-477.0118"/>
<polygon fill="#c0c0c0" stroke="#c0c0c0" stroke-width="2" points="236.4169,-474.8739 228.0198,-468.4133 230.5552,-478.7003 236.4169,-474.8739"/>
</g>
<!-- 25 -->
<g id="node26" class="node">
<title>25</title>
<path fill="none" stroke="#b6d856" stroke-width="2" d="M116,-468C116,-468 78,-468 78,-468 72,-468 66,-462 66,-456 66,-456 66,-444 66,-444 66,-438 72,-432 78,-432 78,-432 116,-432 116,-432 122,-432 128,-438 128,-444 128,-444 128,-456 128,-456 128,-462 122,-468 116,-468"/>
<text text-anchor="middle" x="97" y="-447.5" font-family="sans" font-size="10.00" fill="#000000">blastn_nt</text>
</g>
<!-- 23&#45;&gt;25 -->
<g id="edge54" class="edge">
<title>23&#45;&gt;25</title>
<path fill="none" stroke="#c0c0c0" stroke-width="2" d="M220.3422,-503.9431C197.9997,-494.4341 169.9901,-482.4338 137.6534,-468.2583"/>
<polygon fill="#c0c0c0" stroke="#c0c0c0" stroke-width="2" points="138.9825,-465.0194 128.4191,-464.2027 136.1676,-471.4285 138.9825,-465.0194"/>
</g>
<!-- 24&#45;&gt;12 -->
<g id="edge31" class="edge">
<title>24&#45;&gt;12</title>
<path fill="none" stroke="#c0c0c0" stroke-width="2" d="M523.9344,-431.8314C520.874,-423.9617 517.2221,-414.5712 513.8318,-405.8533"/>
<polygon fill="#c0c0c0" stroke="#c0c0c0" stroke-width="2" points="517.0473,-404.4647 510.1607,-396.4133 510.5232,-407.0019 517.0473,-404.4647"/>
</g>
<!-- 25&#45;&gt;13 -->
<g id="edge33" class="edge">
<title>25&#45;&gt;13</title>
<path fill="none" stroke="#c0c0c0" stroke-width="2" d="M128.2857,-435.4697C131.2118,-434.2477 134.1486,-433.0716 137,-432 176.4155,-417.1871 221.8652,-403.3878 256.8395,-393.4468"/>
<polygon fill="#c0c0c0" stroke="#c0c0c0" stroke-width="2" points="258.1991,-396.7 266.8746,-390.6184 256.3001,-389.9625 258.1991,-396.7"/>
</g>
<!-- 26 -->
<g id="node27" class="node">
<title>26</title>
<path fill="none" stroke="#56d88a" stroke-width="2" d="M649.5,-1476C649.5,-1476 566.5,-1476 566.5,-1476 560.5,-1476 554.5,-1470 554.5,-1464 554.5,-1464 554.5,-1452 554.5,-1452 554.5,-1446 560.5,-1440 566.5,-1440 566.5,-1440 649.5,-1440 649.5,-1440 655.5,-1440 661.5,-1446 661.5,-1452 661.5,-1452 661.5,-1464 661.5,-1464 661.5,-1470 655.5,-1476 649.5,-1476"/>
<text text-anchor="middle" x="608" y="-1455.5" font-family="sans" font-size="10.00" fill="#000000">assemble_cleanup</text>
</g>
<!-- 26&#45;&gt;14 -->
<g id="edge34" class="edge">
<title>26&#45;&gt;14</title>
<path fill="none" stroke="#c0c0c0" stroke-width="2" d="M611.4251,-1439.9555C618.57,-1402.3144 635.1081,-1315.1867 643.6615,-1270.1246"/>
<polygon fill="#c0c0c0" stroke="#c0c0c0" stroke-width="2" points="647.1295,-1270.6224 645.5558,-1260.1451 640.2523,-1269.3169 647.1295,-1270.6224"/>
</g>
<!-- 26&#45;&gt;19 -->
<g id="edge43" class="edge">
<title>26&#45;&gt;19</title>
<path fill="none" stroke="#c0c0c0" stroke-width="2" d="M627.178,-1439.8314C636.3588,-1431.1337 647.5006,-1420.5783 657.4776,-1411.1265"/>
<polygon fill="#c0c0c0" stroke="#c0c0c0" stroke-width="2" points="659.9757,-1413.5811 664.8281,-1404.1628 655.1615,-1408.4995 659.9757,-1413.5811"/>
</g>
<!-- 27 -->
<g id="node28" class="node">
<title>27</title>
<path fill="none" stroke="#5692d8" stroke-width="2" d="M601.5,-1764C601.5,-1764 502.5,-1764 502.5,-1764 496.5,-1764 490.5,-1758 490.5,-1752 490.5,-1752 490.5,-1740 490.5,-1740 490.5,-1734 496.5,-1728 502.5,-1728 502.5,-1728 601.5,-1728 601.5,-1728 607.5,-1728 613.5,-1734 613.5,-1740 613.5,-1740 613.5,-1752 613.5,-1752 613.5,-1758 607.5,-1764 601.5,-1764"/>
<text text-anchor="middle" x="552" y="-1749" font-family="sans" font-size="10.00" fill="#000000">preprocess</text>
<text text-anchor="middle" x="552" y="-1738" font-family="sans" font-size="10.00" fill="#000000">run: SRR5580016sub2</text>
</g>
<!-- 27&#45;&gt;15 -->
<g id="edge36" class="edge">
<title>27&#45;&gt;15</title>
<path fill="none" stroke="#c0c0c0" stroke-width="2" d="M552,-1727.8314C552,-1720.131 552,-1710.9743 552,-1702.4166"/>
<polygon fill="#c0c0c0" stroke="#c0c0c0" stroke-width="2" points="555.5001,-1702.4132 552,-1692.4133 548.5001,-1702.4133 555.5001,-1702.4132"/>
</g>
<!-- 28&#45;&gt;19 -->
<g id="edge44" class="edge">
<title>28&#45;&gt;19</title>
<path fill="none" stroke="#c0c0c0" stroke-width="2" d="M624.6304,-1583.6451C632.9254,-1573.6908 642.5399,-1560.8256 649,-1548 670.8998,-1504.5215 679.14,-1447.7536 682.2103,-1414.2528"/>
<polygon fill="#c0c0c0" stroke="#c0c0c0" stroke-width="2" points="685.7023,-1414.4937 683.0363,-1404.2398 678.726,-1413.9182 685.7023,-1414.4937"/>
</g>
<!-- 34 -->
<g id="node35" class="node">
<title>34</title>
<path fill="none" stroke="#d8cb56" stroke-width="2" d="M628,-1548C628,-1548 588,-1548 588,-1548 582,-1548 576,-1542 576,-1536 576,-1536 576,-1524 576,-1524 576,-1518 582,-1512 588,-1512 588,-1512 628,-1512 628,-1512 634,-1512 640,-1518 640,-1524 640,-1524 640,-1536 640,-1536 640,-1542 634,-1548 628,-1548"/>
<text text-anchor="middle" x="608" y="-1527.5" font-family="sans" font-size="10.00" fill="#000000">assemble</text>
</g>
<!-- 28&#45;&gt;34 -->
<g id="edge62" class="edge">
<title>28&#45;&gt;34</title>
<path fill="none" stroke="#c0c0c0" stroke-width="2" d="M608,-1583.8314C608,-1576.131 608,-1566.9743 608,-1558.4166"/>
<polygon fill="#c0c0c0" stroke="#c0c0c0" stroke-width="2" points="611.5001,-1558.4132 608,-1548.4133 604.5001,-1558.4133 611.5001,-1558.4132"/>
</g>
<!-- 29 -->
<g id="node30" class="node">
<title>29</title>
<path fill="none" stroke="#a7d856" stroke-width="2" d="M465,-828C465,-828 421,-828 421,-828 415,-828 409,-822 409,-816 409,-816 409,-804 409,-804 409,-798 415,-792 421,-792 421,-792 465,-792 465,-792 471,-792 477,-798 477,-804 477,-804 477,-816 477,-816 477,-822 471,-828 465,-828"/>
<text text-anchor="middle" x="443" y="-807.5" font-family="sans" font-size="10.00" fill="#000000">split_fasta</text>
</g>
<!-- 29&#45;&gt;20 -->
<g id="edge45" class="edge">
<title>29&#45;&gt;20</title>
<path fill="none" stroke="#c0c0c0" stroke-width="2" d="M446.6139,-791.6742C450.2677,-773.4495 456.19,-744.7177 462,-720 463.9633,-711.6474 466.2445,-702.6087 468.3883,-694.3591"/>
<polygon fill="#c0c0c0" stroke="#c0c0c0" stroke-width="2" points="471.8376,-695.0041 470.9961,-684.4427 465.0678,-693.2237 471.8376,-695.0041"/>
</g>
<!-- 29&#45;&gt;21 -->
<g id="edge47" class="edge">
<title>29&#45;&gt;21</title>
<path fill="none" stroke="#c0c0c0" stroke-width="2" d="M408.9473,-802.4007C383.3879,-794.9093 349.5594,-780.8651 330,-756 316.2546,-738.526 311.8402,-713.4406 310.6731,-694.1901"/>
<polygon fill="#c0c0c0" stroke="#c0c0c0" stroke-width="2" points="314.1705,-694.0515 310.3201,-684.1811 307.1748,-694.2983 314.1705,-694.0515"/>
</g>
<!-- 30 -->
<g id="node31" class="node">
<title>30</title>
<path fill="none" stroke="#61d856" stroke-width="2" d="M535,-756C535,-756 483,-756 483,-756 477,-756 471,-750 471,-744 471,-744 471,-732 471,-732 471,-726 477,-720 483,-720 483,-720 535,-720 535,-720 541,-720 547,-726 547,-732 547,-732 547,-744 547,-744 547,-750 541,-756 535,-756"/>
<text text-anchor="middle" x="509" y="-741" font-family="sans" font-size="10.00" fill="#000000">blastn_virus</text>
<text text-anchor="middle" x="509" y="-730" font-family="sans" font-size="10.00" fill="#000000">n: 1</text>
</g>
<!-- 29&#45;&gt;30 -->
<g id="edge58" class="edge">
<title>29&#45;&gt;30</title>
<path fill="none" stroke="#c0c0c0" stroke-width="2" d="M459.6546,-791.8314C467.4114,-783.3694 476.7802,-773.1489 485.261,-763.8971"/>
<polygon fill="#c0c0c0" stroke="#c0c0c0" stroke-width="2" points="487.9439,-766.1499 492.1212,-756.4133 482.7838,-761.4198 487.9439,-766.1499"/>
</g>
<!-- 31 -->
<g id="node32" class="node">
<title>31</title>
<path fill="none" stroke="#61d856" stroke-width="2" d="M403,-756C403,-756 351,-756 351,-756 345,-756 339,-750 339,-744 339,-744 339,-732 339,-732 339,-726 345,-720 351,-720 351,-720 403,-720 403,-720 409,-720 415,-726 415,-732 415,-732 415,-744 415,-744 415,-750 409,-756 403,-756"/>
<text text-anchor="middle" x="377" y="-741" font-family="sans" font-size="10.00" fill="#000000">blastn_virus</text>
<text text-anchor="middle" x="377" y="-730" font-family="sans" font-size="10.00" fill="#000000">n: 2</text>
</g>
<!-- 29&#45;&gt;31 -->
<g id="edge59" class="edge">
<title>29&#45;&gt;31</title>
<path fill="none" stroke="#c0c0c0" stroke-width="2" d="M426.3454,-791.8314C418.5886,-783.3694 409.2198,-773.1489 400.739,-763.8971"/>
<polygon fill="#c0c0c0" stroke="#c0c0c0" stroke-width="2" points="403.2162,-761.4198 393.8788,-756.4133 398.0561,-766.1499 403.2162,-761.4198"/>
</g>
<!-- 30&#45;&gt;20 -->
<g id="edge46" class="edge">
<title>30&#45;&gt;20</title>
<path fill="none" stroke="#c0c0c0" stroke-width="2" d="M500.6727,-719.8314C497.027,-711.8771 492.6691,-702.369 488.6373,-693.5723"/>
<polygon fill="#c0c0c0" stroke="#c0c0c0" stroke-width="2" points="491.7877,-692.0456 484.4394,-684.4133 485.4243,-694.9622 491.7877,-692.0456"/>
</g>
<!-- 31&#45;&gt;21 -->
<g id="edge48" class="edge">
<title>31&#45;&gt;21</title>
<path fill="none" stroke="#c0c0c0" stroke-width="2" d="M360.3454,-719.8314C352.5886,-711.3694 343.2198,-701.1489 334.739,-691.8971"/>
<polygon fill="#c0c0c0" stroke="#c0c0c0" stroke-width="2" points="337.2162,-689.4198 327.8788,-684.4133 332.0561,-694.1499 337.2162,-689.4198"/>
</g>
<!-- 32&#45;&gt;22 -->
<g id="edge50" class="edge">
<title>32&#45;&gt;22</title>
<path fill="none" stroke="#c0c0c0" stroke-width="2" d="M531,-575.8314C531,-568.131 531,-558.9743 531,-550.4166"/>
<polygon fill="#c0c0c0" stroke="#c0c0c0" stroke-width="2" points="534.5001,-550.4132 531,-540.4133 527.5001,-550.4133 534.5001,-550.4132"/>
</g>
<!-- 33&#45;&gt;23 -->
<g id="edge52" class="edge">
<title>33&#45;&gt;23</title>
<path fill="none" stroke="#c0c0c0" stroke-width="2" d="M130.6773,-576.7542C154.3914,-566.9415 184.3384,-554.5496 209.743,-544.0374"/>
<polygon fill="#c0c0c0" stroke="#c0c0c0" stroke-width="2" points="211.3327,-547.1675 219.2346,-540.1098 208.6562,-540.6993 211.3327,-547.1675"/>
</g>
<!-- 34&#45;&gt;26 -->
<g id="edge55" class="edge">
<title>34&#45;&gt;26</title>
<path fill="none" stroke="#c0c0c0" stroke-width="2" d="M608,-1511.8314C608,-1504.131 608,-1494.9743 608,-1486.4166"/>
<polygon fill="#c0c0c0" stroke="#c0c0c0" stroke-width="2" points="611.5001,-1486.4132 608,-1476.4133 604.5001,-1486.4133 611.5001,-1486.4132"/>
</g>
<!-- 35 -->
<g id="node36" class="node">
<title>35</title>
<path fill="none" stroke="#d8a456" stroke-width="2" d="M555,-900C555,-900 465,-900 465,-900 459,-900 453,-894 453,-888 453,-888 453,-876 453,-876 453,-870 459,-864 465,-864 465,-864 555,-864 555,-864 561,-864 567,-870 567,-876 567,-876 567,-888 567,-888 567,-894 561,-900 555,-900"/>
<text text-anchor="middle" x="510" y="-879.5" font-family="sans" font-size="10.00" fill="#000000">repeatmasker_good</text>
</g>
<!-- 35&#45;&gt;29 -->
<g id="edge57" class="edge">
<title>35&#45;&gt;29</title>
<path fill="none" stroke="#c0c0c0" stroke-width="2" d="M493.0931,-863.8314C485.2187,-855.3694 475.708,-845.1489 467.0987,-835.8971"/>
<polygon fill="#c0c0c0" stroke="#c0c0c0" stroke-width="2" points="469.5092,-833.3497 460.1346,-828.4133 464.3847,-838.1183 469.5092,-833.3497"/>
</g>
<!-- 36 -->
<g id="node37" class="node">
<title>36</title>
<path fill="none" stroke="#d85656" stroke-width="2" d="M611.5,-972C611.5,-972 550.5,-972 550.5,-972 544.5,-972 538.5,-966 538.5,-960 538.5,-960 538.5,-948 538.5,-948 538.5,-942 544.5,-936 550.5,-936 550.5,-936 611.5,-936 611.5,-936 617.5,-936 623.5,-942 623.5,-948 623.5,-948 623.5,-960 623.5,-960 623.5,-966 617.5,-972 611.5,-972"/>
<text text-anchor="middle" x="581" y="-951.5" font-family="sans" font-size="10.00" fill="#000000">repeatmasker</text>
</g>
<!-- 36&#45;&gt;35 -->
<g id="edge63" class="edge">
<title>36&#45;&gt;35</title>
<path fill="none" stroke="#c0c0c0" stroke-width="2" d="M563.0837,-935.8314C554.6558,-927.2848 544.459,-916.9443 535.264,-907.6198"/>
<polygon fill="#c0c0c0" stroke="#c0c0c0" stroke-width="2" points="537.6711,-905.0761 528.1575,-900.4133 532.6869,-909.9912 537.6711,-905.0761"/>
</g>
<!-- 37 -->
<g id="node38" class="node">
<title>37</title>
<path fill="none" stroke="#d89556" stroke-width="2" d="M607.5,-1044C607.5,-1044 554.5,-1044 554.5,-1044 548.5,-1044 542.5,-1038 542.5,-1032 542.5,-1032 542.5,-1020 542.5,-1020 542.5,-1014 548.5,-1008 554.5,-1008 554.5,-1008 607.5,-1008 607.5,-1008 613.5,-1008 619.5,-1014 619.5,-1020 619.5,-1020 619.5,-1032 619.5,-1032 619.5,-1038 613.5,-1044 607.5,-1044"/>
<text text-anchor="middle" x="581" y="-1023.5" font-family="sans" font-size="10.00" fill="#000000">tantan_good</text>
</g>
<!-- 37&#45;&gt;35 -->
<g id="edge64" class="edge">
<title>37&#45;&gt;35</title>
<path fill="none" stroke="#c0c0c0" stroke-width="2" d="M558.4931,-1007.915C547.9981,-998.3157 536.252,-985.6852 529,-972 518.8739,-952.8912 514.1442,-928.8143 511.9353,-910.3727"/>
<polygon fill="#c0c0c0" stroke="#c0c0c0" stroke-width="2" points="515.3992,-909.8399 510.9042,-900.2459 508.4352,-910.549 515.3992,-909.8399"/>
</g>
<!-- 37&#45;&gt;36 -->
<g id="edge65" class="edge">
<title>37&#45;&gt;36</title>
<path fill="none" stroke="#c0c0c0" stroke-width="2" d="M581,-1007.8314C581,-1000.131 581,-990.9743 581,-982.4166"/>
<polygon fill="#c0c0c0" stroke="#c0c0c0" stroke-width="2" points="584.5001,-982.4132 581,-972.4133 577.5001,-982.4133 584.5001,-982.4132"/>
</g>
<!-- 38 -->
<g id="node39" class="node">
<title>38</title>
<path fill="none" stroke="#5673d8" stroke-width="2" d="M613,-1116C613,-1116 583,-1116 583,-1116 577,-1116 571,-1110 571,-1104 571,-1104 571,-1092 571,-1092 571,-1086 577,-1080 583,-1080 583,-1080 613,-1080 613,-1080 619,-1080 625,-1086 625,-1092 625,-1092 625,-1104 625,-1104 625,-1110 619,-1116 613,-1116"/>
<text text-anchor="middle" x="598" y="-1095.5" font-family="sans" font-size="10.00" fill="#000000">tantan</text>
</g>
<!-- 38&#45;&gt;37 -->
<g id="edge66" class="edge">
<title>38&#45;&gt;37</title>
<path fill="none" stroke="#c0c0c0" stroke-width="2" d="M593.7102,-1079.8314C591.892,-1072.131 589.7301,-1062.9743 587.7095,-1054.4166"/>
<polygon fill="#c0c0c0" stroke="#c0c0c0" stroke-width="2" points="591.0519,-1053.3414 585.3476,-1044.4133 584.2392,-1054.95 591.0519,-1053.3414"/>
</g>
<!-- 39&#45;&gt;38 -->
<g id="edge67" class="edge">
<title>39&#45;&gt;38</title>
<path fill="none" stroke="#c0c0c0" stroke-width="2" d="M623.4204,-1151.8314C619.6642,-1143.8771 615.1743,-1134.369 611.0202,-1125.5723"/>
<polygon fill="#c0c0c0" stroke="#c0c0c0" stroke-width="2" points="614.1301,-1123.9612 606.6952,-1116.4133 607.8004,-1126.9503 614.1301,-1123.9612"/>
</g>
</g>
</svg>
