<?xml version="1.0" encoding="UTF-8" standalone="no"?>
<!DOCTYPE svg PUBLIC "-//W3C//DTD SVG 1.1//EN"
 "http://www.w3.org/Graphics/SVG/1.1/DTD/svg11.dtd">
<!-- Generated by graphviz version 2.38.0 (20140413.2041)
 -->
<!-- Title: snakemake_dag Pages: 1 -->
<svg width="764pt" height="1342pt"
 viewBox="0.00 0.00 764.17 1342.00" xmlns="http://www.w3.org/2000/svg" xmlns:xlink="http://www.w3.org/1999/xlink">
<g id="graph0" class="graph" transform="scale(1 1) rotate(0) translate(4 1338)">
<title>snakemake_dag</title>
<polygon fill="white" stroke="none" points="-4,4 -4,-1338 760.167,-1338 760.167,4 -4,4"/>
<!-- 0 -->
<g id="node1" class="node"><title>0</title>
<path fill="none" stroke="#56d8a9" stroke-width="2" d="M493.869,-36C493.869,-36 463.869,-36 463.869,-36 457.869,-36 451.869,-30 451.869,-24 451.869,-24 451.869,-12 451.869,-12 451.869,-6 457.869,-0 463.869,-0 463.869,-0 493.869,-0 493.869,-0 499.869,-0 505.869,-6 505.869,-12 505.869,-12 505.869,-24 505.869,-24 505.869,-30 499.869,-36 493.869,-36"/>
<text text-anchor="middle" x="478.869" y="-15" font-family="sans" font-size="10.00">all</text>
</g>
<!-- 1 -->
<g id="node2" class="node"><title>1</title>
<path fill="none" stroke="#56d8b9" stroke-width="2" d="M470.997,-108C470.997,-108 422.741,-108 422.741,-108 416.741,-108 410.741,-102 410.741,-96 410.741,-96 410.741,-84 410.741,-84 410.741,-78 416.741,-72 422.741,-72 422.741,-72 470.997,-72 470.997,-72 476.997,-72 482.997,-78 482.997,-84 482.997,-84 482.997,-96 482.997,-96 482.997,-102 476.997,-108 470.997,-108"/>
<text text-anchor="middle" x="446.869" y="-87" font-family="sans" font-size="10.00">filter_viruses</text>
</g>
<!-- 1&#45;&gt;0 -->
<g id="edge1" class="edge"><title>1&#45;&gt;0</title>
<path fill="none" stroke="grey" stroke-width="2" d="M454.779,-71.6966C458.422,-63.7284 462.824,-54.0995 466.863,-45.2641"/>
<polygon fill="grey" stroke="grey" stroke-width="2" points="470.076,-46.6543 471.05,-36.1043 463.709,-43.7439 470.076,-46.6543"/>
</g>
<!-- 2 -->
<g id="node3" class="node"><title>2</title>
<path fill="none" stroke="#567bd8" stroke-width="2" d="M380.428,-108C380.428,-108 303.311,-108 303.311,-108 297.311,-108 291.311,-102 291.311,-96 291.311,-96 291.311,-84 291.311,-84 291.311,-78 297.311,-72 303.311,-72 303.311,-72 380.428,-72 380.428,-72 386.428,-72 392.428,-78 392.428,-84 392.428,-84 392.428,-96 392.428,-96 392.428,-102 386.428,-108 380.428,-108"/>
<text text-anchor="middle" x="341.869" y="-87" font-family="sans" font-size="10.00">merge_unassigned</text>
</g>
<!-- 2&#45;&gt;0 -->
<g id="edge2" class="edge"><title>2&#45;&gt;0</title>
<path fill="none" stroke="grey" stroke-width="2" d="M375.383,-71.8761C395.717,-61.4865 421.673,-48.2243 442.503,-37.5812"/>
<polygon fill="grey" stroke="grey" stroke-width="2" points="444.362,-40.5619 451.674,-32.8951 441.177,-34.3284 444.362,-40.5619"/>
</g>
<!-- 3 -->
<g id="node4" class="node"><title>3</title>
<path fill="none" stroke="#568ad8" stroke-width="2" d="M507.167,-1116C507.167,-1116 472.571,-1116 472.571,-1116 466.571,-1116 460.571,-1110 460.571,-1104 460.571,-1104 460.571,-1092 460.571,-1092 460.571,-1086 466.571,-1080 472.571,-1080 472.571,-1080 507.167,-1080 507.167,-1080 513.167,-1080 519.167,-1086 519.167,-1092 519.167,-1092 519.167,-1104 519.167,-1104 519.167,-1110 513.167,-1116 507.167,-1116"/>
<text text-anchor="middle" x="489.869" y="-1095" font-family="sans" font-size="10.00">assemble</text>
</g>
<!-- 3&#45;&gt;0 -->
<g id="edge3" class="edge"><title>3&#45;&gt;0</title>
<path fill="none" stroke="grey" stroke-width="2" d="M497.559,-1079.91C508.663,-1053.62 527.869,-1001.45 527.869,-955 527.869,-955 527.869,-955 527.869,-881 527.869,-784.401 565.869,-763.599 565.869,-667 565.869,-667 565.869,-667 565.869,-161 565.869,-114.161 531.026,-69.7355 505.441,-43.4277"/>
<polygon fill="grey" stroke="grey" stroke-width="2" points="507.729,-40.7663 498.177,-36.1818 502.785,-45.7221 507.729,-40.7663"/>
</g>
<!-- 5 -->
<g id="node6" class="node"><title>5</title>
<path fill="none" stroke="#70d856" stroke-width="2" d="M601.507,-1044C601.507,-1044 568.231,-1044 568.231,-1044 562.231,-1044 556.231,-1038 556.231,-1032 556.231,-1032 556.231,-1020 556.231,-1020 556.231,-1014 562.231,-1008 568.231,-1008 568.231,-1008 601.507,-1008 601.507,-1008 607.507,-1008 613.507,-1014 613.507,-1020 613.507,-1020 613.507,-1032 613.507,-1032 613.507,-1038 607.507,-1044 601.507,-1044"/>
<text text-anchor="middle" x="584.869" y="-1023" font-family="sans" font-size="10.00">coverage</text>
</g>
<!-- 3&#45;&gt;5 -->
<g id="edge16" class="edge"><title>3&#45;&gt;5</title>
<path fill="none" stroke="grey" stroke-width="2" d="M513.352,-1079.7C525.432,-1070.8 540.323,-1059.82 553.385,-1050.2"/>
<polygon fill="grey" stroke="grey" stroke-width="2" points="555.682,-1052.85 561.656,-1044.1 551.529,-1047.22 555.682,-1052.85"/>
</g>
<!-- 6 -->
<g id="node7" class="node"><title>6</title>
<path fill="none" stroke="#ced856" stroke-width="2" d="M442.017,-684C442.017,-684 373.722,-684 373.722,-684 367.722,-684 361.722,-678 361.722,-672 361.722,-672 361.722,-660 361.722,-660 361.722,-654 367.722,-648 373.722,-648 373.722,-648 442.017,-648 442.017,-648 448.017,-648 454.017,-654 454.017,-660 454.017,-660 454.017,-672 454.017,-672 454.017,-678 448.017,-684 442.017,-684"/>
<text text-anchor="middle" x="407.869" y="-663" font-family="sans" font-size="10.00">preprocess_stats</text>
</g>
<!-- 3&#45;&gt;6 -->
<g id="edge23" class="edge"><title>3&#45;&gt;6</title>
<path fill="none" stroke="grey" stroke-width="2" d="M489.869,-1079.95C489.869,-1053.29 489.869,-1000.11 489.869,-955 489.869,-955 489.869,-955 489.869,-809 489.869,-762.88 457.029,-718.264 432.914,-691.719"/>
<polygon fill="grey" stroke="grey" stroke-width="2" points="435.456,-689.312 426.068,-684.402 430.344,-694.095 435.456,-689.312"/>
</g>
<!-- 17 -->
<g id="node18" class="node"><title>17</title>
<path fill="none" stroke="#56d873" stroke-width="2" d="M449.869,-1044C449.869,-1044 419.869,-1044 419.869,-1044 413.869,-1044 407.869,-1038 407.869,-1032 407.869,-1032 407.869,-1020 407.869,-1020 407.869,-1014 413.869,-1008 419.869,-1008 419.869,-1008 449.869,-1008 449.869,-1008 455.869,-1008 461.869,-1014 461.869,-1020 461.869,-1020 461.869,-1032 461.869,-1032 461.869,-1038 455.869,-1044 449.869,-1044"/>
<text text-anchor="middle" x="434.869" y="-1023" font-family="sans" font-size="10.00">cd_hit</text>
</g>
<!-- 3&#45;&gt;17 -->
<g id="edge40" class="edge"><title>3&#45;&gt;17</title>
<path fill="none" stroke="grey" stroke-width="2" d="M476.274,-1079.7C469.746,-1071.39 461.801,-1061.28 454.623,-1052.14"/>
<polygon fill="grey" stroke="grey" stroke-width="2" points="457.239,-1049.81 448.308,-1044.1 451.734,-1054.13 457.239,-1049.81"/>
</g>
<!-- 4 -->
<g id="node5" class="node"><title>4</title>
<path fill="none" stroke="#d86656" stroke-width="2" d="M283.672,-180C283.672,-180 244.066,-180 244.066,-180 238.066,-180 232.066,-174 232.066,-168 232.066,-168 232.066,-156 232.066,-156 232.066,-150 238.066,-144 244.066,-144 244.066,-144 283.672,-144 283.672,-144 289.672,-144 295.672,-150 295.672,-156 295.672,-156 295.672,-168 295.672,-168 295.672,-174 289.672,-180 283.672,-180"/>
<text text-anchor="middle" x="263.869" y="-159" font-family="sans" font-size="10.00">blast_stats</text>
</g>
<!-- 4&#45;&gt;0 -->
<g id="edge4" class="edge"><title>4&#45;&gt;0</title>
<path fill="none" stroke="grey" stroke-width="2" d="M262.375,-143.88C261.632,-123.99 263.636,-91.4247 281.869,-72 303.526,-48.9281 390.93,-32.2426 441.746,-24.2689"/>
<polygon fill="grey" stroke="grey" stroke-width="2" points="442.34,-27.719 451.695,-22.7457 441.28,-20.7996 442.34,-27.719"/>
</g>
<!-- 5&#45;&gt;0 -->
<g id="edge5" class="edge"><title>5&#45;&gt;0</title>
<path fill="none" stroke="grey" stroke-width="2" d="M588.714,-1007.61C594.266,-980.942 603.869,-928.268 603.869,-883 603.869,-883 603.869,-883 603.869,-161 603.869,-120.031 605.485,-103.972 579.869,-72 563.549,-51.6297 537.258,-38.1854 515.591,-29.9352"/>
<polygon fill="grey" stroke="grey" stroke-width="2" points="516.609,-26.5819 506.014,-26.5039 514.248,-33.1717 516.609,-26.5819"/>
</g>
<!-- 6&#45;&gt;0 -->
<g id="edge6" class="edge"><title>6&#45;&gt;0</title>
<path fill="none" stroke="grey" stroke-width="2" d="M431.499,-647.974C461.909,-623.885 510.869,-576.754 510.869,-523 510.869,-523 510.869,-523 510.869,-161 510.869,-120.037 498.04,-74.018 488.628,-45.7682"/>
<polygon fill="grey" stroke="grey" stroke-width="2" points="491.903,-44.5281 485.345,-36.2066 485.282,-46.8013 491.903,-44.5281"/>
</g>
<!-- 7 -->
<g id="node8" class="node"><title>7</title>
<path fill="none" stroke="#56d8c9" stroke-width="2" d="M125.966,-1116C125.966,-1116 63.7725,-1116 63.7725,-1116 57.7725,-1116 51.7725,-1110 51.7725,-1104 51.7725,-1104 51.7725,-1092 51.7725,-1092 51.7725,-1086 57.7725,-1080 63.7725,-1080 63.7725,-1080 125.966,-1080 125.966,-1080 131.966,-1080 137.966,-1086 137.966,-1092 137.966,-1092 137.966,-1104 137.966,-1104 137.966,-1110 131.966,-1116 125.966,-1116"/>
<text text-anchor="middle" x="94.8691" y="-1095" font-family="sans" font-size="10.00">host_bam_stats</text>
</g>
<!-- 7&#45;&gt;0 -->
<g id="edge7" class="edge"><title>7&#45;&gt;0</title>
<path fill="none" stroke="grey" stroke-width="2" d="M88.1911,-1079.81C78.5484,-1053.4 61.8691,-1001.06 61.8691,-955 61.8691,-955 61.8691,-955 61.8691,-161 61.8691,-81.1343 339.432,-37.0684 441.656,-23.5475"/>
<polygon fill="grey" stroke="grey" stroke-width="2" points="442.364,-26.985 451.83,-22.2265 441.462,-20.0433 442.364,-26.985"/>
</g>
<!-- 8 -->
<g id="node9" class="node"><title>8</title>
<path fill="none" stroke="#56d8c9" stroke-width="2" d="M743.966,-972C743.966,-972 681.772,-972 681.772,-972 675.772,-972 669.772,-966 669.772,-960 669.772,-960 669.772,-948 669.772,-948 669.772,-942 675.772,-936 681.772,-936 681.772,-936 743.966,-936 743.966,-936 749.966,-936 755.966,-942 755.966,-948 755.966,-948 755.966,-960 755.966,-960 755.966,-966 749.966,-972 743.966,-972"/>
<text text-anchor="middle" x="712.869" y="-951" font-family="sans" font-size="10.00">host_bam_stats</text>
</g>
<!-- 8&#45;&gt;0 -->
<g id="edge8" class="edge"><title>8&#45;&gt;0</title>
<path fill="none" stroke="grey" stroke-width="2" d="M709.429,-935.592C704.461,-908.896 695.869,-856.188 695.869,-811 695.869,-811 695.869,-811 695.869,-161 695.869,-76.0914 578.104,-39.2207 516.084,-25.6905"/>
<polygon fill="grey" stroke="grey" stroke-width="2" points="516.417,-22.1848 505.914,-23.5718 514.99,-29.0377 516.417,-22.1848"/>
</g>
<!-- 9 -->
<g id="node10" class="node"><title>9</title>
<path fill="none" stroke="#d89c56" stroke-width="2" d="M431.22,-180C431.22,-180 390.519,-180 390.519,-180 384.519,-180 378.519,-174 378.519,-168 378.519,-168 378.519,-156 378.519,-156 378.519,-150 384.519,-144 390.519,-144 390.519,-144 431.22,-144 431.22,-144 437.22,-144 443.22,-150 443.22,-156 443.22,-156 443.22,-168 443.22,-168 443.22,-174 437.22,-180 431.22,-180"/>
<text text-anchor="middle" x="410.869" y="-159" font-family="sans" font-size="10.00">classify_all</text>
</g>
<!-- 9&#45;&gt;1 -->
<g id="edge9" class="edge"><title>9&#45;&gt;1</title>
<path fill="none" stroke="grey" stroke-width="2" d="M419.768,-143.697C423.866,-135.728 428.818,-126.1 433.362,-117.264"/>
<polygon fill="grey" stroke="grey" stroke-width="2" points="436.612,-118.598 438.073,-108.104 430.387,-115.396 436.612,-118.598"/>
</g>
<!-- 10 -->
<g id="node11" class="node"><title>10</title>
<path fill="none" stroke="#80d856" stroke-width="2" d="M370.531,-252C370.531,-252 307.207,-252 307.207,-252 301.207,-252 295.207,-246 295.207,-240 295.207,-240 295.207,-228 295.207,-228 295.207,-222 301.207,-216 307.207,-216 307.207,-216 370.531,-216 370.531,-216 376.531,-216 382.531,-222 382.531,-228 382.531,-228 382.531,-240 382.531,-240 382.531,-246 376.531,-252 370.531,-252"/>
<text text-anchor="middle" x="338.869" y="-231" font-family="sans" font-size="10.00">parse_blastn_nt</text>
</g>
<!-- 10&#45;&gt;2 -->
<g id="edge10" class="edge"><title>10&#45;&gt;2</title>
<path fill="none" stroke="grey" stroke-width="2" d="M339.231,-215.871C339.742,-191.67 340.682,-147.211 341.29,-118.393"/>
<polygon fill="grey" stroke="grey" stroke-width="2" points="344.794,-118.261 341.506,-108.189 337.795,-118.113 344.794,-118.261"/>
</g>
<!-- 10&#45;&gt;4 -->
<g id="edge15" class="edge"><title>10&#45;&gt;4</title>
<path fill="none" stroke="grey" stroke-width="2" d="M320.33,-215.697C311.066,-207.05 299.707,-196.449 289.612,-187.027"/>
<polygon fill="grey" stroke="grey" stroke-width="2" points="291.894,-184.369 282.195,-180.104 287.118,-189.486 291.894,-184.369"/>
</g>
<!-- 10&#45;&gt;9 -->
<g id="edge31" class="edge"><title>10&#45;&gt;9</title>
<path fill="none" stroke="grey" stroke-width="2" d="M356.667,-215.697C365.473,-207.135 376.251,-196.656 385.87,-187.304"/>
<polygon fill="grey" stroke="grey" stroke-width="2" points="388.546,-189.585 393.276,-180.104 383.666,-184.566 388.546,-189.585"/>
</g>
<!-- 11 -->
<g id="node12" class="node"><title>11</title>
<path fill="none" stroke="#a7d856" stroke-width="2" d="M390.593,-1188C390.593,-1188 327.145,-1188 327.145,-1188 321.145,-1188 315.145,-1182 315.145,-1176 315.145,-1176 315.145,-1164 315.145,-1164 315.145,-1158 321.145,-1152 327.145,-1152 327.145,-1152 390.593,-1152 390.593,-1152 396.593,-1152 402.593,-1158 402.593,-1164 402.593,-1164 402.593,-1176 402.593,-1176 402.593,-1182 396.593,-1188 390.593,-1188"/>
<text text-anchor="middle" x="358.869" y="-1167" font-family="sans" font-size="10.00">unmapped_host</text>
</g>
<!-- 11&#45;&gt;3 -->
<g id="edge11" class="edge"><title>11&#45;&gt;3</title>
<path fill="none" stroke="grey" stroke-width="2" d="M390.915,-1151.88C409.225,-1142.09 432.301,-1129.76 451.563,-1119.47"/>
<polygon fill="grey" stroke="grey" stroke-width="2" points="453.223,-1122.55 460.394,-1114.75 449.924,-1116.38 453.223,-1122.55"/>
</g>
<!-- 11&#45;&gt;5 -->
<g id="edge17" class="edge"><title>11&#45;&gt;5</title>
<path fill="none" stroke="grey" stroke-width="2" d="M402.949,-1163.67C439.499,-1157.39 491.221,-1144.01 527.869,-1116 549.043,-1099.82 564.538,-1073.35 573.982,-1053.48"/>
<polygon fill="grey" stroke="grey" stroke-width="2" points="577.19,-1054.88 578.131,-1044.33 570.815,-1051.99 577.19,-1054.88"/>
</g>
<!-- 11&#45;&gt;6 -->
<g id="edge20" class="edge"><title>11&#45;&gt;6</title>
<path fill="none" stroke="grey" stroke-width="2" d="M316.515,-1151.93C270.622,-1130.31 203.869,-1088.31 203.869,-1027 203.869,-1027 203.869,-1027 203.869,-809 203.869,-767.114 204.695,-749.052 234.869,-720 243.584,-711.61 304.45,-694.126 351.551,-681.531"/>
<polygon fill="grey" stroke="grey" stroke-width="2" points="352.603,-684.873 361.369,-678.923 350.805,-678.108 352.603,-684.873"/>
</g>
<!-- 12 -->
<g id="node13" class="node"><title>12</title>
<path fill="none" stroke="#a7d856" stroke-width="2" d="M616.593,-1188C616.593,-1188 553.145,-1188 553.145,-1188 547.145,-1188 541.145,-1182 541.145,-1176 541.145,-1176 541.145,-1164 541.145,-1164 541.145,-1158 547.145,-1152 553.145,-1152 553.145,-1152 616.593,-1152 616.593,-1152 622.593,-1152 628.593,-1158 628.593,-1164 628.593,-1164 628.593,-1176 628.593,-1176 628.593,-1182 622.593,-1188 616.593,-1188"/>
<text text-anchor="middle" x="584.869" y="-1167" font-family="sans" font-size="10.00">unmapped_host</text>
</g>
<!-- 12&#45;&gt;3 -->
<g id="edge12" class="edge"><title>12&#45;&gt;3</title>
<path fill="none" stroke="grey" stroke-width="2" d="M561.386,-1151.7C549.307,-1142.8 534.415,-1131.82 521.353,-1122.2"/>
<polygon fill="grey" stroke="grey" stroke-width="2" points="523.209,-1119.22 513.082,-1116.1 519.057,-1124.85 523.209,-1119.22"/>
</g>
<!-- 12&#45;&gt;5 -->
<g id="edge18" class="edge"><title>12&#45;&gt;5</title>
<path fill="none" stroke="grey" stroke-width="2" d="M584.869,-1151.87C584.869,-1127.67 584.869,-1083.21 584.869,-1054.39"/>
<polygon fill="grey" stroke="grey" stroke-width="2" points="588.369,-1054.19 584.869,-1044.19 581.369,-1054.19 588.369,-1054.19"/>
</g>
<!-- 12&#45;&gt;6 -->
<g id="edge22" class="edge"><title>12&#45;&gt;6</title>
<path fill="none" stroke="grey" stroke-width="2" d="M596.68,-1151.96C613.375,-1126.16 641.869,-1075.08 641.869,-1027 641.869,-1027 641.869,-1027 641.869,-953 641.869,-830.818 512.362,-732.142 446.039,-689.619"/>
<polygon fill="grey" stroke="grey" stroke-width="2" points="447.83,-686.611 437.505,-684.234 444.095,-692.531 447.83,-686.611"/>
</g>
<!-- 13 -->
<g id="node14" class="node"><title>13</title>
<path fill="none" stroke="#61d856" stroke-width="2" d="M346.805,-540C346.805,-540 270.934,-540 270.934,-540 264.934,-540 258.934,-534 258.934,-528 258.934,-528 258.934,-516 258.934,-516 258.934,-510 264.934,-504 270.934,-504 270.934,-504 346.805,-504 346.805,-504 352.805,-504 358.805,-510 358.805,-516 358.805,-516 358.805,-528 358.805,-528 358.805,-534 352.805,-540 346.805,-540"/>
<text text-anchor="middle" x="308.869" y="-519" font-family="sans" font-size="10.00">parse_blastn_virus</text>
</g>
<!-- 13&#45;&gt;4 -->
<g id="edge13" class="edge"><title>13&#45;&gt;4</title>
<path fill="none" stroke="grey" stroke-width="2" d="M266.788,-503.856C221.191,-482.159 154.869,-440.097 154.869,-379 154.869,-379 154.869,-379 154.869,-305 154.869,-254.932 198.037,-211.644 230.04,-186.431"/>
<polygon fill="grey" stroke="grey" stroke-width="2" points="232.49,-188.964 238.313,-180.113 228.242,-183.401 232.49,-188.964"/>
</g>
<!-- 14 -->
<g id="node15" class="node"><title>14</title>
<path fill="none" stroke="#56d85b" stroke-width="2" d="M352.985,-396C352.985,-396 270.753,-396 270.753,-396 264.753,-396 258.753,-390 258.753,-384 258.753,-384 258.753,-372 258.753,-372 258.753,-366 264.753,-360 270.753,-360 270.753,-360 352.985,-360 352.985,-360 358.985,-360 364.985,-366 364.985,-372 364.985,-372 364.985,-384 364.985,-384 364.985,-390 358.985,-396 352.985,-396"/>
<text text-anchor="middle" x="311.869" y="-375" font-family="sans" font-size="10.00">parse_megablast_nt</text>
</g>
<!-- 13&#45;&gt;14 -->
<g id="edge38" class="edge"><title>13&#45;&gt;14</title>
<path fill="none" stroke="grey" stroke-width="2" d="M309.231,-503.871C309.742,-479.67 310.682,-435.211 311.29,-406.393"/>
<polygon fill="grey" stroke="grey" stroke-width="2" points="314.794,-406.261 311.506,-396.189 307.795,-406.113 314.794,-406.261"/>
</g>
<!-- 26 -->
<g id="node27" class="node"><title>26</title>
<path fill="none" stroke="#56d882" stroke-width="2" d="M284.908,-468C284.908,-468 232.83,-468 232.83,-468 226.83,-468 220.83,-462 220.83,-456 220.83,-456 220.83,-444 220.83,-444 220.83,-438 226.83,-432 232.83,-432 232.83,-432 284.908,-432 284.908,-432 290.908,-432 296.908,-438 296.908,-444 296.908,-444 296.908,-456 296.908,-456 296.908,-462 290.908,-468 284.908,-468"/>
<text text-anchor="middle" x="258.869" y="-447" font-family="sans" font-size="10.00">megablast_nt</text>
</g>
<!-- 13&#45;&gt;26 -->
<g id="edge52" class="edge"><title>13&#45;&gt;26</title>
<path fill="none" stroke="grey" stroke-width="2" d="M296.51,-503.697C290.636,-495.474 283.5,-485.483 277.027,-476.421"/>
<polygon fill="grey" stroke="grey" stroke-width="2" points="279.747,-474.207 271.087,-468.104 274.051,-478.276 279.747,-474.207"/>
</g>
<!-- 14&#45;&gt;4 -->
<g id="edge14" class="edge"><title>14&#45;&gt;4</title>
<path fill="none" stroke="grey" stroke-width="2" d="M308.022,-359.849C299.702,-322.753 279.976,-234.81 269.948,-190.103"/>
<polygon fill="grey" stroke="grey" stroke-width="2" points="273.338,-189.224 267.734,-180.232 266.508,-190.756 273.338,-189.224"/>
</g>
<!-- 14&#45;&gt;9 -->
<g id="edge30" class="edge"><title>14&#45;&gt;9</title>
<path fill="none" stroke="grey" stroke-width="2" d="M325.682,-359.903C343.642,-336.805 374.734,-293.707 391.869,-252 400.012,-232.18 404.86,-208.382 407.618,-190.383"/>
<polygon fill="grey" stroke="grey" stroke-width="2" points="411.113,-190.662 409.043,-180.272 404.182,-189.685 411.113,-190.662"/>
</g>
<!-- 14&#45;&gt;10 -->
<g id="edge32" class="edge"><title>14&#45;&gt;10</title>
<path fill="none" stroke="grey" stroke-width="2" d="M315.126,-359.871C319.728,-335.67 328.181,-291.211 333.661,-262.393"/>
<polygon fill="grey" stroke="grey" stroke-width="2" points="337.171,-262.667 335.601,-252.189 330.294,-261.359 337.171,-262.667"/>
</g>
<!-- 23 -->
<g id="node24" class="node"><title>23</title>
<path fill="none" stroke="#d85656" stroke-width="2" d="M226.957,-324C226.957,-324 194.782,-324 194.782,-324 188.782,-324 182.782,-318 182.782,-312 182.782,-312 182.782,-300 182.782,-300 182.782,-294 188.782,-288 194.782,-288 194.782,-288 226.957,-288 226.957,-288 232.957,-288 238.957,-294 238.957,-300 238.957,-300 238.957,-312 238.957,-312 238.957,-318 232.957,-324 226.957,-324"/>
<text text-anchor="middle" x="210.869" y="-303" font-family="sans" font-size="10.00">blastn_nt</text>
</g>
<!-- 14&#45;&gt;23 -->
<g id="edge47" class="edge"><title>14&#45;&gt;23</title>
<path fill="none" stroke="grey" stroke-width="2" d="M287.162,-359.876C274.201,-350.893 258.141,-339.763 244.104,-330.034"/>
<polygon fill="grey" stroke="grey" stroke-width="2" points="245.884,-327.009 235.671,-324.19 241.897,-332.763 245.884,-327.009"/>
</g>
<!-- 15 -->
<g id="node16" class="node"><title>15</title>
<path fill="none" stroke="#566bd8" stroke-width="2" d="M105.608,-1334C105.608,-1334 12.1306,-1334 12.1306,-1334 6.13057,-1334 0.130569,-1328 0.130569,-1322 0.130569,-1322 0.130569,-1308 0.130569,-1308 0.130569,-1302 6.13057,-1296 12.1306,-1296 12.1306,-1296 105.608,-1296 105.608,-1296 111.608,-1296 117.608,-1302 117.608,-1308 117.608,-1308 117.608,-1322 117.608,-1322 117.608,-1328 111.608,-1334 105.608,-1334"/>
<text text-anchor="middle" x="58.8691" y="-1322" font-family="sans" font-size="10.00">preprocess</text>
<text text-anchor="middle" x="58.8691" y="-1312" font-family="sans" font-size="10.00">group: A</text>
<text text-anchor="middle" x="58.8691" y="-1302" font-family="sans" font-size="10.00">run: SRR5580016sub2</text>
</g>
<!-- 15&#45;&gt;6 -->
<g id="edge19" class="edge"><title>15&#45;&gt;6</title>
<path fill="none" stroke="grey" stroke-width="2" d="M51.4465,-1295.84C41.1726,-1269.01 23.8691,-1217.01 23.8691,-1171 23.8691,-1171 23.8691,-1171 23.8691,-1025 23.8691,-874.328 53.1962,-812.837 171.869,-720 232.698,-672.414 266.679,-701.636 341.869,-684 345.195,-683.22 348.611,-682.399 352.054,-681.558"/>
<polygon fill="grey" stroke="grey" stroke-width="2" points="352.912,-684.951 361.774,-679.145 351.226,-678.157 352.912,-684.951"/>
</g>
<!-- 21 -->
<g id="node22" class="node"><title>21</title>
<path fill="none" stroke="#d88d56" stroke-width="2" d="M125.961,-1260C125.961,-1260 63.7774,-1260 63.7774,-1260 57.7774,-1260 51.7774,-1254 51.7774,-1248 51.7774,-1248 51.7774,-1236 51.7774,-1236 51.7774,-1230 57.7774,-1224 63.7774,-1224 63.7774,-1224 125.961,-1224 125.961,-1224 131.961,-1224 137.961,-1230 137.961,-1236 137.961,-1236 137.961,-1248 137.961,-1248 137.961,-1254 131.961,-1260 125.961,-1260"/>
<text text-anchor="middle" x="94.8691" y="-1239" font-family="sans" font-size="10.00">bwa_mem_host</text>
</g>
<!-- 15&#45;&gt;21 -->
<g id="edge45" class="edge"><title>15&#45;&gt;21</title>
<path fill="none" stroke="grey" stroke-width="2" d="M68.14,-1295.72C72.2402,-1287.63 77.1378,-1277.97 81.6138,-1269.14"/>
<polygon fill="grey" stroke="grey" stroke-width="2" points="84.847,-1270.51 86.2477,-1260 78.6037,-1267.34 84.847,-1270.51"/>
</g>
<!-- 16 -->
<g id="node17" class="node"><title>16</title>
<path fill="none" stroke="#566bd8" stroke-width="2" d="M457.947,-1334C457.947,-1334 335.791,-1334 335.791,-1334 329.791,-1334 323.791,-1328 323.791,-1322 323.791,-1322 323.791,-1308 323.791,-1308 323.791,-1302 329.791,-1296 335.791,-1296 335.791,-1296 457.947,-1296 457.947,-1296 463.947,-1296 469.947,-1302 469.947,-1308 469.947,-1308 469.947,-1322 469.947,-1322 469.947,-1328 463.947,-1334 457.947,-1334"/>
<text text-anchor="middle" x="396.869" y="-1322" font-family="sans" font-size="10.00">preprocess</text>
<text text-anchor="middle" x="396.869" y="-1312" font-family="sans" font-size="10.00">group: A</text>
<text text-anchor="middle" x="396.869" y="-1302" font-family="sans" font-size="10.00">run: SRR5580016sub2COPY</text>
</g>
<!-- 16&#45;&gt;6 -->
<g id="edge21" class="edge"><title>16&#45;&gt;6</title>
<path fill="none" stroke="grey" stroke-width="2" d="M323.779,-1300.59C256.104,-1283.46 165.869,-1246.47 165.869,-1171 165.869,-1171 165.869,-1171 165.869,-809 165.869,-765.633 172.77,-748.021 205.869,-720 206.592,-719.388 292.53,-696.969 352.068,-681.488"/>
<polygon fill="grey" stroke="grey" stroke-width="2" points="352.949,-684.876 361.747,-678.972 351.188,-678.101 352.949,-684.876"/>
</g>
<!-- 22 -->
<g id="node23" class="node"><title>22</title>
<path fill="none" stroke="#d88d56" stroke-width="2" d="M615.961,-1260C615.961,-1260 553.777,-1260 553.777,-1260 547.777,-1260 541.777,-1254 541.777,-1248 541.777,-1248 541.777,-1236 541.777,-1236 541.777,-1230 547.777,-1224 553.777,-1224 553.777,-1224 615.961,-1224 615.961,-1224 621.961,-1224 627.961,-1230 627.961,-1236 627.961,-1236 627.961,-1248 627.961,-1248 627.961,-1254 621.961,-1260 615.961,-1260"/>
<text text-anchor="middle" x="584.869" y="-1239" font-family="sans" font-size="10.00">bwa_mem_host</text>
</g>
<!-- 16&#45;&gt;22 -->
<g id="edge46" class="edge"><title>16&#45;&gt;22</title>
<path fill="none" stroke="grey" stroke-width="2" d="M444.796,-1295.9C471.46,-1285.83 504.695,-1273.28 532.1,-1262.93"/>
<polygon fill="grey" stroke="grey" stroke-width="2" points="533.411,-1266.17 541.53,-1259.37 530.938,-1259.63 533.411,-1266.17"/>
</g>
<!-- 17&#45;&gt;6 -->
<g id="edge24" class="edge"><title>17&#45;&gt;6</title>
<path fill="none" stroke="grey" stroke-width="2" d="M438.309,-1007.59C443.277,-980.896 451.869,-928.188 451.869,-883 451.869,-883 451.869,-883 451.869,-809 451.869,-767.212 434.269,-721.482 421.331,-693.511"/>
<polygon fill="grey" stroke="grey" stroke-width="2" points="424.448,-691.915 416.986,-684.394 418.129,-694.927 424.448,-691.915"/>
</g>
<!-- 18 -->
<g id="node19" class="node"><title>18</title>
<path fill="none" stroke="#56a2d8" stroke-width="2" d="M411.869,-972C411.869,-972 381.869,-972 381.869,-972 375.869,-972 369.869,-966 369.869,-960 369.869,-960 369.869,-948 369.869,-948 369.869,-942 375.869,-936 381.869,-936 381.869,-936 411.869,-936 411.869,-936 417.869,-936 423.869,-942 423.869,-948 423.869,-948 423.869,-960 423.869,-960 423.869,-966 417.869,-972 411.869,-972"/>
<text text-anchor="middle" x="396.869" y="-951" font-family="sans" font-size="10.00">tantan</text>
</g>
<!-- 17&#45;&gt;18 -->
<g id="edge41" class="edge"><title>17&#45;&gt;18</title>
<path fill="none" stroke="grey" stroke-width="2" d="M425.476,-1007.7C421.104,-999.644 415.812,-989.894 410.974,-980.982"/>
<polygon fill="grey" stroke="grey" stroke-width="2" points="414.001,-979.223 406.154,-972.104 407.849,-982.563 414.001,-979.223"/>
</g>
<!-- 18&#45;&gt;6 -->
<g id="edge25" class="edge"><title>18&#45;&gt;6</title>
<path fill="none" stroke="grey" stroke-width="2" d="M397.524,-935.966C399.358,-888.291 404.554,-753.185 406.806,-694.63"/>
<polygon fill="grey" stroke="grey" stroke-width="2" points="410.316,-694.434 407.204,-684.306 403.322,-694.165 410.316,-694.434"/>
</g>
<!-- 19 -->
<g id="node20" class="node"><title>19</title>
<path fill="none" stroke="#b6d856" stroke-width="2" d="M367.481,-900C367.481,-900 320.258,-900 320.258,-900 314.258,-900 308.258,-894 308.258,-888 308.258,-888 308.258,-876 308.258,-876 308.258,-870 314.258,-864 320.258,-864 320.258,-864 367.481,-864 367.481,-864 373.481,-864 379.481,-870 379.481,-876 379.481,-876 379.481,-888 379.481,-888 379.481,-894 373.481,-900 367.481,-900"/>
<text text-anchor="middle" x="343.869" y="-879" font-family="sans" font-size="10.00">tantan_good</text>
</g>
<!-- 18&#45;&gt;19 -->
<g id="edge42" class="edge"><title>18&#45;&gt;19</title>
<path fill="none" stroke="grey" stroke-width="2" d="M383.768,-935.697C377.478,-927.389 369.822,-917.277 362.904,-908.141"/>
<polygon fill="grey" stroke="grey" stroke-width="2" points="365.646,-905.964 356.82,-900.104 360.066,-910.19 365.646,-905.964"/>
</g>
<!-- 19&#45;&gt;6 -->
<g id="edge26" class="edge"><title>19&#45;&gt;6</title>
<path fill="none" stroke="grey" stroke-width="2" d="M348.998,-863.849C360.116,-826.675 386.504,-738.439 399.848,-693.82"/>
<polygon fill="grey" stroke="grey" stroke-width="2" points="403.203,-694.816 402.716,-684.232 396.497,-692.81 403.203,-694.816"/>
</g>
<!-- 20 -->
<g id="node21" class="node"><title>20</title>
<path fill="none" stroke="#d8c356" stroke-width="2" d="M336.314,-756C336.314,-756 255.424,-756 255.424,-756 249.424,-756 243.424,-750 243.424,-744 243.424,-744 243.424,-732 243.424,-732 243.424,-726 249.424,-720 255.424,-720 255.424,-720 336.314,-720 336.314,-720 342.314,-720 348.314,-726 348.314,-732 348.314,-732 348.314,-744 348.314,-744 348.314,-750 342.314,-756 336.314,-756"/>
<text text-anchor="middle" x="295.869" y="-735" font-family="sans" font-size="10.00">repeatmasker_good</text>
</g>
<!-- 19&#45;&gt;20 -->
<g id="edge44" class="edge"><title>19&#45;&gt;20</title>
<path fill="none" stroke="grey" stroke-width="2" d="M339.756,-863.722C335.277,-845.63 327.58,-816.497 318.869,-792 315.777,-783.305 311.937,-774.015 308.286,-765.68"/>
<polygon fill="grey" stroke="grey" stroke-width="2" points="311.424,-764.124 304.143,-756.427 305.036,-766.984 311.424,-764.124"/>
</g>
<!-- 27 -->
<g id="node28" class="node"><title>27</title>
<path fill="none" stroke="#d8d356" stroke-width="2" d="M297.507,-828C297.507,-828 244.231,-828 244.231,-828 238.231,-828 232.231,-822 232.231,-816 232.231,-816 232.231,-804 232.231,-804 232.231,-798 238.231,-792 244.231,-792 244.231,-792 297.507,-792 297.507,-792 303.507,-792 309.507,-798 309.507,-804 309.507,-804 309.507,-816 309.507,-816 309.507,-822 303.507,-828 297.507,-828"/>
<text text-anchor="middle" x="270.869" y="-807" font-family="sans" font-size="10.00">repeatmasker</text>
</g>
<!-- 19&#45;&gt;27 -->
<g id="edge54" class="edge"><title>19&#45;&gt;27</title>
<path fill="none" stroke="grey" stroke-width="2" d="M325.824,-863.697C316.807,-855.05 305.751,-844.449 295.926,-835.027"/>
<polygon fill="grey" stroke="grey" stroke-width="2" points="298.347,-832.499 288.707,-828.104 293.502,-837.552 298.347,-832.499"/>
</g>
<!-- 20&#45;&gt;6 -->
<g id="edge27" class="edge"><title>20&#45;&gt;6</title>
<path fill="none" stroke="grey" stroke-width="2" d="M323.267,-719.876C337.776,-710.808 355.785,-699.552 371.454,-689.759"/>
<polygon fill="grey" stroke="grey" stroke-width="2" points="373.741,-692.458 380.366,-684.19 370.031,-686.522 373.741,-692.458"/>
</g>
<!-- 24 -->
<g id="node25" class="node"><title>24</title>
<path fill="none" stroke="#56c1d8" stroke-width="2" d="M320.394,-684C320.394,-684 283.345,-684 283.345,-684 277.345,-684 271.345,-678 271.345,-672 271.345,-672 271.345,-660 271.345,-660 271.345,-654 277.345,-648 283.345,-648 283.345,-648 320.394,-648 320.394,-648 326.394,-648 332.394,-654 332.394,-660 332.394,-660 332.394,-672 332.394,-672 332.394,-678 326.394,-684 320.394,-684"/>
<text text-anchor="middle" x="301.869" y="-663" font-family="sans" font-size="10.00">split_fasta</text>
</g>
<!-- 20&#45;&gt;24 -->
<g id="edge49" class="edge"><title>20&#45;&gt;24</title>
<path fill="none" stroke="grey" stroke-width="2" d="M297.352,-719.697C298.013,-711.983 298.808,-702.712 299.545,-694.112"/>
<polygon fill="grey" stroke="grey" stroke-width="2" points="303.036,-694.367 300.403,-684.104 296.062,-693.769 303.036,-694.367"/>
</g>
<!-- 21&#45;&gt;7 -->
<g id="edge28" class="edge"><title>21&#45;&gt;7</title>
<path fill="none" stroke="grey" stroke-width="2" d="M94.8691,-1223.87C94.8691,-1199.67 94.8691,-1155.21 94.8691,-1126.39"/>
<polygon fill="grey" stroke="grey" stroke-width="2" points="98.3692,-1126.19 94.8691,-1116.19 91.3692,-1126.19 98.3692,-1126.19"/>
</g>
<!-- 21&#45;&gt;11 -->
<g id="edge34" class="edge"><title>21&#45;&gt;11</title>
<path fill="none" stroke="grey" stroke-width="2" d="M138.168,-1229.52C183.877,-1217.4 255.997,-1198.28 305.266,-1185.21"/>
<polygon fill="grey" stroke="grey" stroke-width="2" points="306.338,-1188.55 315.107,-1182.6 304.544,-1181.78 306.338,-1188.55"/>
</g>
<!-- 22&#45;&gt;8 -->
<g id="edge29" class="edge"><title>22&#45;&gt;8</title>
<path fill="none" stroke="grey" stroke-width="2" d="M606.428,-1223.77C617.168,-1214.22 629.593,-1201.55 637.869,-1188 679.196,-1120.35 700.118,-1027.57 708.429,-982.208"/>
<polygon fill="grey" stroke="grey" stroke-width="2" points="711.895,-982.705 710.189,-972.249 705.002,-981.487 711.895,-982.705"/>
</g>
<!-- 22&#45;&gt;12 -->
<g id="edge35" class="edge"><title>22&#45;&gt;12</title>
<path fill="none" stroke="grey" stroke-width="2" d="M584.869,-1223.7C584.869,-1215.98 584.869,-1206.71 584.869,-1198.11"/>
<polygon fill="grey" stroke="grey" stroke-width="2" points="588.369,-1198.1 584.869,-1188.1 581.369,-1198.1 588.369,-1198.1"/>
</g>
<!-- 23&#45;&gt;10 -->
<g id="edge33" class="edge"><title>23&#45;&gt;10</title>
<path fill="none" stroke="grey" stroke-width="2" d="M238.959,-289.638C256.494,-280.049 279.345,-267.552 298.767,-256.931"/>
<polygon fill="grey" stroke="grey" stroke-width="2" points="300.608,-259.913 307.703,-252.044 297.25,-253.772 300.608,-259.913"/>
</g>
<!-- 24&#45;&gt;13 -->
<g id="edge36" class="edge"><title>24&#45;&gt;13</title>
<path fill="none" stroke="grey" stroke-width="2" d="M317.479,-647.774C325.242,-638.03 333.815,-625.184 337.869,-612 342.572,-596.707 341.833,-591.501 337.869,-576 335.49,-566.697 331.104,-557.27 326.451,-548.997"/>
<polygon fill="grey" stroke="grey" stroke-width="2" points="329.326,-546.986 321.176,-540.216 323.325,-550.59 329.326,-546.986"/>
</g>
<!-- 25 -->
<g id="node26" class="node"><title>25</title>
<path fill="none" stroke="#d87d56" stroke-width="2" d="M316.729,-612C316.729,-612 271.009,-612 271.009,-612 265.009,-612 259.009,-606 259.009,-600 259.009,-600 259.009,-588 259.009,-588 259.009,-582 265.009,-576 271.009,-576 271.009,-576 316.729,-576 316.729,-576 322.729,-576 328.729,-582 328.729,-588 328.729,-588 328.729,-600 328.729,-600 328.729,-606 322.729,-612 316.729,-612"/>
<text text-anchor="middle" x="293.869" y="-596" font-family="sans" font-size="10.00">blastn_virus</text>
<text text-anchor="middle" x="293.869" y="-586" font-family="sans" font-size="10.00">n: 1</text>
</g>
<!-- 24&#45;&gt;25 -->
<g id="edge50" class="edge"><title>24&#45;&gt;25</title>
<path fill="none" stroke="grey" stroke-width="2" d="M299.892,-647.697C299.01,-639.983 297.951,-630.712 296.968,-622.112"/>
<polygon fill="grey" stroke="grey" stroke-width="2" points="300.437,-621.642 295.824,-612.104 293.482,-622.437 300.437,-621.642"/>
</g>
<!-- 25&#45;&gt;13 -->
<g id="edge37" class="edge"><title>25&#45;&gt;13</title>
<path fill="none" stroke="grey" stroke-width="2" d="M297.577,-575.697C299.23,-567.983 301.216,-558.712 303.059,-550.112"/>
<polygon fill="grey" stroke="grey" stroke-width="2" points="306.531,-550.616 305.204,-540.104 299.686,-549.149 306.531,-550.616"/>
</g>
<!-- 26&#45;&gt;14 -->
<g id="edge39" class="edge"><title>26&#45;&gt;14</title>
<path fill="none" stroke="grey" stroke-width="2" d="M271.97,-431.697C278.26,-423.389 285.917,-413.277 292.834,-404.141"/>
<polygon fill="grey" stroke="grey" stroke-width="2" points="295.673,-406.19 298.919,-396.104 290.092,-401.964 295.673,-406.19"/>
</g>
<!-- 27&#45;&gt;20 -->
<g id="edge43" class="edge"><title>27&#45;&gt;20</title>
<path fill="none" stroke="grey" stroke-width="2" d="M277.049,-791.697C279.864,-783.813 283.26,-774.304 286.388,-765.546"/>
<polygon fill="grey" stroke="grey" stroke-width="2" points="289.693,-766.699 289.76,-756.104 283.101,-764.345 289.693,-766.699"/>
</g>
<!-- 28 -->
<g id="node29" class="node"><title>28</title>
<path fill="none" stroke="#56d0d8" stroke-width="2" d="M241.775,-684C241.775,-684 205.963,-684 205.963,-684 199.963,-684 193.963,-678 193.963,-672 193.963,-672 193.963,-660 193.963,-660 193.963,-654 199.963,-648 205.963,-648 205.963,-648 241.775,-648 241.775,-648 247.775,-648 253.775,-654 253.775,-660 253.775,-660 253.775,-672 253.775,-672 253.775,-678 247.775,-684 241.775,-684"/>
<text text-anchor="middle" x="223.869" y="-663" font-family="sans" font-size="10.00">taxids_list</text>
</g>
<!-- 28&#45;&gt;23 -->
<g id="edge48" class="edge"><title>28&#45;&gt;23</title>
<path fill="none" stroke="grey" stroke-width="2" d="M217.596,-647.776C208.538,-621.322 192.869,-568.925 192.869,-523 192.869,-523 192.869,-523 192.869,-449 192.869,-408.896 200.022,-362.924 205.31,-334.419"/>
<polygon fill="grey" stroke="grey" stroke-width="2" points="208.786,-334.878 207.227,-324.399 201.91,-333.563 208.786,-334.878"/>
</g>
<!-- 28&#45;&gt;25 -->
<g id="edge51" class="edge"><title>28&#45;&gt;25</title>
<path fill="none" stroke="grey" stroke-width="2" d="M241.173,-647.697C249.734,-639.135 260.213,-628.656 269.565,-619.304"/>
<polygon fill="grey" stroke="grey" stroke-width="2" points="272.169,-621.65 276.765,-612.104 267.219,-616.701 272.169,-621.65"/>
</g>
<!-- 28&#45;&gt;26 -->
<g id="edge53" class="edge"><title>28&#45;&gt;26</title>
<path fill="none" stroke="grey" stroke-width="2" d="M226.632,-647.6C231.332,-618.065 241.217,-556.234 249.869,-504 251.263,-495.584 252.809,-486.421 254.221,-478.117"/>
<polygon fill="grey" stroke="grey" stroke-width="2" points="257.685,-478.626 255.916,-468.18 250.784,-477.449 257.685,-478.626"/>
</g>
</g>
</svg>
